<svg width="417" height="60" viewBox="0 0 417 60" fill="none" xmlns="http://www.w3.org/2000/svg">
<path d="M1.904 47.902C1.136 47.4753 0.709333 47.006 0.624 46.494C0.581333 45.982 0.88 45.086 1.52 43.806C2.16 42.526 3.16267 40.542 4.528 37.854C5.552 35.934 6.23467 34.4406 6.576 33.374C6.96 32.2646 7.17333 31.4753 7.216 31.006C7.25867 30.5366 7.28 30.238 7.28 30.11C7.19467 29.726 7.23733 29.4273 7.408 29.214C7.57867 28.958 7.856 28.7446 8.24 28.574C8.45333 28.3606 8.944 27.9766 9.712 27.422C10.48 26.8673 11.0773 26.206 11.504 25.438C11.888 24.542 12.3147 23.6246 12.784 22.686C13.296 21.7473 13.9573 20.574 14.768 19.166C15.5787 17.7153 16.6667 15.838 18.032 13.534C18.8853 12.0406 19.888 10.3553 21.04 8.47798C22.2347 6.60064 23.408 4.89398 24.56 3.35798C25.0293 2.76064 25.52 2.29131 26.032 1.94997C26.544 1.60864 26.992 1.43798 27.376 1.43798C28.3147 1.43798 29.2533 1.69398 30.192 2.20597C31.1307 2.67531 31.9627 3.27264 32.688 3.99797C33.4133 4.72331 33.904 5.40598 34.16 6.04597C34.3733 6.38731 34.4587 7.11264 34.416 8.22198C34.3733 9.33131 34.288 10.6753 34.16 12.254C34.032 13.8326 33.8827 15.518 33.712 17.31C33.584 19.0593 33.392 21.1286 33.136 23.518C32.88 25.9073 32.624 28.4033 32.368 31.006C32.1547 33.6086 31.984 36.126 31.856 38.558C31.728 40.9473 31.728 43.038 31.856 44.83C31.8987 45.214 31.8987 45.5766 31.856 45.918C31.8133 46.2593 31.792 46.5366 31.792 46.75C31.536 47.006 30.9813 47.1126 30.128 47.07C29.2747 47.07 28.4427 46.942 27.632 46.686C26.8213 46.43 26.3733 46.11 26.288 45.726C26.16 45.598 26.0747 45.4913 26.032 45.406C25.9893 45.3206 25.9893 44.9153 26.032 44.19C26.0747 43.422 26.1387 42.0353 26.224 40.03L26.544 30.238L25.712 30.302C25.328 30.302 24.624 30.3446 23.6 30.43C22.6187 30.5153 21.5307 30.6433 20.336 30.814C19.184 30.942 18.1173 31.0913 17.136 31.262C16.1547 31.39 15.472 31.518 15.088 31.646C14.704 31.646 14.2347 31.902 13.68 32.414C13.168 32.926 12.6773 33.5873 12.208 34.398C12.0373 34.9953 11.7173 35.6353 11.248 36.318C10.8213 36.958 10.608 37.3846 10.608 37.598C10.3093 37.8113 10.0533 38.0673 9.84 38.366C9.66933 38.6646 9.584 38.814 9.584 38.814C9.584 39.07 9.392 39.71 9.008 40.734C8.624 41.7153 8.15467 42.8246 7.6 44.062C7.04533 45.2566 6.46933 46.302 5.872 47.198L4.144 49.63L1.904 47.902ZM17.2 25.886C17.2 25.886 17.4347 25.8433 17.904 25.758C18.3733 25.6726 18.928 25.5873 19.568 25.502C20.2507 25.374 20.848 25.31 21.36 25.31C22.3413 25.054 23.152 24.862 23.792 24.734C24.4747 24.606 25.0293 24.542 25.456 24.542C25.8827 24.4993 26.224 24.542 26.48 24.67C26.6507 24.8833 26.8 25.0113 26.928 25.054C27.0987 25.0966 27.184 25.118 27.184 25.118C27.2267 25.0326 27.312 24.5846 27.44 23.774C27.568 22.9633 27.7173 21.9606 27.888 20.766C28.0587 19.5713 28.2293 18.334 28.4 17.054C28.5707 15.7313 28.72 14.5153 28.848 13.406C28.976 12.254 29.0613 11.358 29.104 10.718C29.1467 9.90731 29.1253 9.18198 29.04 8.54198C28.9547 7.85931 28.912 7.51797 28.912 7.51797C28.656 7.51797 28.1653 7.98731 27.44 8.92598C26.7573 9.82198 25.9467 11.038 25.008 12.574C24.112 14.0673 23.216 15.6886 22.32 17.438C21.8933 18.2486 21.488 18.8886 21.104 19.358C20.7627 19.8273 20.4853 20.062 20.272 20.062C20.1867 20.1473 19.952 20.4886 19.568 21.086C19.2267 21.6406 18.8427 22.2806 18.416 23.006C18.032 23.6886 17.6907 24.3286 17.392 24.926C17.136 25.4806 17.072 25.8006 17.2 25.886ZM44.6835 58.59C43.4888 59.0593 42.2302 58.974 40.9075 58.334C39.6275 57.7366 38.5182 56.7766 37.5795 55.454C37.4088 55.198 37.1528 54.7286 36.8115 54.046C36.4702 53.406 36.1288 52.702 35.7875 51.934C35.4888 51.166 35.2542 50.5046 35.0835 49.95C34.9555 49.3953 34.9555 49.0753 35.0835 48.99C35.2542 48.5206 35.6382 48.2433 36.2355 48.158C36.8328 48.0726 37.4302 48.094 38.0275 48.222C38.6248 48.3926 38.9662 48.606 39.0515 48.862C39.1795 49.1606 39.3075 49.4593 39.4355 49.758C39.5635 50.0993 39.7128 50.398 39.8835 50.654C40.0968 50.9526 40.2888 51.2086 40.4595 51.422C40.9288 52.1473 41.4408 52.638 41.9955 52.894C42.5502 53.1926 42.9768 53.2353 43.2755 53.022C44.0008 52.4673 44.5342 51.806 44.8755 51.038C45.2595 50.3126 45.7502 49.0113 46.3475 47.134C46.8168 45.5553 47.2222 44.19 47.5635 43.038C47.9048 41.886 48.2675 40.8193 48.6515 39.838C48.7795 39.326 48.9288 38.8993 49.0995 38.558C49.3128 38.174 49.5048 37.8966 49.6755 37.726H50.0595C49.1208 38.3233 48.3315 38.9206 47.6915 39.518C47.0515 40.1153 46.1768 40.6486 45.0675 41.118C44.8115 41.4166 44.1715 41.6086 43.1475 41.694C42.1662 41.7366 41.2062 41.6086 40.2675 41.31C39.6702 40.9686 39.1795 40.6273 38.7955 40.286C38.4542 39.902 38.1555 39.4753 37.8995 39.006C37.6862 38.5366 37.4515 37.982 37.1955 37.342C36.8968 36.702 36.8542 35.6566 37.0675 34.206C37.2808 32.7553 37.6648 31.3046 38.2195 29.854C38.7315 28.7873 39.4782 27.6353 40.4595 26.398C41.4408 25.1606 42.4862 24.0513 43.5955 23.07C44.7048 22.046 45.7075 21.406 46.6035 21.15C46.9448 20.9793 47.5422 20.7873 48.3955 20.574C49.2488 20.318 50.0595 20.2966 50.8275 20.51C51.5528 20.5953 52.1075 20.766 52.4915 21.022C52.8755 21.2353 53.4942 21.7046 54.3475 22.43C54.9022 22.9846 55.5848 23.71 56.3955 24.606C57.2062 25.4593 57.7182 26.1846 57.9315 26.782C58.2302 27.422 58.2942 28.126 58.1235 28.894C57.9528 29.6193 57.6542 30.2593 57.2275 30.814C56.8435 31.3686 56.4382 31.9233 56.0115 32.478C55.5848 33.0326 55.2648 33.8006 55.0515 34.782C54.8382 36.062 54.4328 37.5126 53.8355 39.134C53.2382 40.7126 52.7688 42.1846 52.4275 43.55L51.4035 47.518C50.3368 51.1446 49.1635 53.7686 47.8835 55.39C46.6035 57.054 45.5368 58.1206 44.6835 58.59ZM43.3395 36.574C44.1928 36.5313 44.9182 36.446 45.5155 36.318C46.1555 36.1473 46.7528 35.806 47.3075 35.294C47.8622 34.7393 48.5022 33.9073 49.2275 32.798C49.9528 31.774 50.4648 30.8353 50.7635 29.982C51.0622 29.1286 51.1688 28.1686 51.0835 27.102C51.0408 26.4193 50.8488 25.9713 50.5075 25.758C50.1662 25.5446 49.7182 25.4806 49.1635 25.566C48.3528 25.694 47.6275 26.0353 46.9875 26.59C46.3475 27.102 45.6008 27.9126 44.7475 29.022C44.1075 29.8753 43.5742 30.8993 43.1475 32.094C42.7208 33.374 42.5288 34.398 42.5715 35.166C42.6568 35.934 42.9128 36.4033 43.3395 36.574ZM73.352 44.51C72.072 45.2353 70.7067 45.662 69.256 45.79C67.848 45.8753 66.5253 45.6833 65.288 45.214C64.0507 44.702 63.048 43.9553 62.28 42.974C61.8533 42.4193 61.448 41.5446 61.064 40.35C60.68 39.1126 60.616 37.4486 60.872 35.358C61.128 33.3953 61.7253 31.4113 62.664 29.406C63.6453 27.4006 64.84 25.63 66.248 24.094C67.656 22.558 69.192 21.5126 70.856 20.958C71.4533 20.7446 72.0507 20.5953 72.648 20.51C73.288 20.382 74.12 20.3606 75.144 20.446C76.1253 20.574 77 20.83 77.768 21.214C78.536 21.5553 79.0907 21.9393 79.432 22.366C80.1147 23.0486 80.5627 23.71 80.776 24.35C80.9893 24.99 81.0747 25.6086 81.032 26.206C80.8187 27.5713 80.2 29.0433 79.176 30.622C78.1947 32.2006 76.808 33.374 75.016 34.142C74.2907 34.4406 73.4373 34.6326 72.456 34.718C71.4747 34.8033 70.1307 34.6753 68.424 34.334C67.4 34.1206 66.7173 34.2273 66.376 34.654C66.0773 35.0806 65.9493 35.9126 65.992 37.15C66.0773 37.918 66.248 38.6006 66.504 39.198C66.8027 39.7526 67.336 40.1366 68.104 40.35C69.0853 40.5206 69.7893 40.542 70.216 40.414C70.6427 40.2433 71.176 40.0086 71.816 39.71C72.1573 39.4966 72.4773 39.262 72.776 39.006C73.1173 38.75 73.4373 38.494 73.736 38.238C74.0773 37.982 74.3547 37.79 74.568 37.662C74.7813 37.4913 74.9947 37.3846 75.208 37.342C75.4213 37.2993 75.6347 37.278 75.848 37.278C76.3173 37.3206 76.7653 37.5766 77.192 38.046C77.6187 38.5153 77.896 38.9633 78.024 39.39C78.024 39.7313 77.8107 40.222 77.384 40.862C76.9573 41.4593 76.3813 42.0993 75.656 42.782C74.9733 43.422 74.2053 43.998 73.352 44.51ZM72.52 30.238C72.8187 30.11 73.2453 29.8113 73.8 29.342C74.3973 28.8726 74.9307 28.382 75.4 27.87C75.8693 27.3153 76.104 26.8886 76.104 26.59C76.104 26.1206 75.784 25.7153 75.144 25.374C74.5467 25.0326 73.7573 24.9686 72.776 25.182C72.4347 25.2673 72.0293 25.502 71.56 25.886C71.0907 26.27 70.6213 26.718 70.152 27.23C69.6827 27.6993 69.2773 28.1686 68.936 28.638C68.5947 29.0646 68.36 29.406 68.232 29.662C68.4027 29.8753 68.744 30.046 69.256 30.174C69.768 30.302 70.3227 30.366 70.92 30.366C71.56 30.366 72.0933 30.3233 72.52 30.238ZM103.091 45.534C102.451 45.534 101.832 45.342 101.235 44.958C100.638 44.5313 100.147 43.9553 99.763 43.23C99.379 42.462 99.187 41.566 99.187 40.542C99.187 39.902 99.2937 39.006 99.507 37.854C99.763 36.6593 100.126 35.166 100.595 33.374C100.68 32.7766 100.744 32.3926 100.787 32.222C100.872 32.0513 100.915 31.8806 100.915 31.71C100.915 31.6246 100.894 31.5606 100.851 31.518C100.851 31.4326 100.808 31.39 100.723 31.39C100.382 31.39 99.9123 31.6246 99.315 32.094C98.7603 32.5206 98.1203 33.0326 97.395 33.63C97.267 33.7153 97.1177 33.822 96.947 33.95C96.819 34.078 96.6697 34.206 96.499 34.334C96.371 34.462 96.2217 34.59 96.051 34.718C95.6243 34.974 94.963 35.4646 94.067 36.19C93.2137 36.9153 92.3177 37.6833 91.379 38.494C90.483 39.3046 89.6937 39.9873 89.011 40.542C88.6697 40.798 88.371 41.0113 88.115 41.182C87.9017 41.3526 87.7523 41.438 87.667 41.438C87.5817 41.438 87.2403 41.3313 86.643 41.118C86.0883 40.862 85.5337 40.5206 84.979 40.094C84.467 39.6246 84.211 39.0913 84.211 38.494C84.211 38.11 84.3603 37.342 84.659 36.19C85.0003 35.038 85.4697 33.6726 86.067 32.094C86.6643 30.5153 87.347 28.9153 88.115 27.294C88.2857 26.91 88.4137 26.398 88.499 25.758C88.5843 25.118 88.6697 24.4993 88.755 23.902C88.883 23.262 89.0963 22.7926 89.395 22.494C89.523 22.2806 89.6723 22.1313 89.843 22.046C90.0563 21.918 90.2697 21.854 90.483 21.854C90.9097 21.854 91.315 21.9606 91.699 22.174C92.083 22.3446 92.4457 22.6433 92.787 23.07C93.427 23.7526 93.7683 24.5633 93.811 25.502C93.8963 26.398 93.8323 27.2726 93.619 28.126C93.4057 28.9793 93.171 29.6833 92.915 30.238C92.659 30.75 92.531 30.9633 92.531 30.878C92.7017 30.7926 92.9363 30.5793 93.235 30.238C93.5763 29.8966 94.1523 29.4913 94.963 29.022C96.0723 28.1686 96.9257 27.5713 97.523 27.23C98.1203 26.846 98.5683 26.5686 98.867 26.398C99.2083 26.2273 99.507 26.0353 99.763 25.822C99.9763 25.6513 100.126 25.5446 100.211 25.502C100.339 25.4593 100.403 25.438 100.403 25.438C100.531 25.438 100.744 25.3526 101.043 25.182C101.384 25.0113 101.704 24.926 102.003 24.926C102.43 24.926 102.878 25.0326 103.347 25.246C103.816 25.4166 104.222 25.6726 104.563 26.014C104.904 26.3126 105.075 26.6326 105.075 26.974C105.075 27.102 105.118 27.2086 105.203 27.294C105.288 27.3793 105.374 27.486 105.459 27.614C105.672 27.87 105.907 28.2326 106.163 28.702C106.462 29.1286 106.611 29.8326 106.611 30.814C106.611 31.4966 106.462 32.4993 106.163 33.822C105.864 35.1446 105.544 36.446 105.203 37.726C104.862 39.0486 104.691 40.1153 104.691 40.926C104.734 41.694 104.819 42.2913 104.947 42.718C105.075 43.102 105.139 43.422 105.139 43.678C105.139 44.0193 104.968 44.4246 104.627 44.894C104.286 45.3206 103.774 45.534 103.091 45.534ZM128.798 46.558C128.329 46.7286 127.795 46.814 127.198 46.814C126.643 46.8566 126.003 46.6006 125.278 46.046C124.851 45.5766 124.553 45.086 124.382 44.574C124.254 44.062 124.19 43.2726 124.19 42.206C124.275 41.566 124.446 40.6486 124.702 39.454C124.958 38.2166 125.235 36.9366 125.534 35.614C125.875 34.2486 126.174 33.0326 126.43 31.966C126.729 30.8566 126.963 30.11 127.134 29.726C127.433 28.702 127.497 28.062 127.326 27.806C127.155 27.55 126.643 27.4006 125.79 27.358C124.809 27.3153 123.785 27.7846 122.718 28.766C121.651 29.7473 120.435 31.3046 119.07 33.438C118.046 35.0166 117.427 36.318 117.214 37.342C117.001 38.3233 116.979 39.006 117.15 39.39C117.235 39.5606 117.385 39.6673 117.598 39.71C117.854 39.71 118.153 39.646 118.494 39.518C118.878 39.39 119.283 39.2193 119.71 39.006C120.009 38.8353 120.371 38.6646 120.798 38.494C121.267 38.2806 121.715 38.0886 122.142 37.918C122.398 37.918 122.569 38.0673 122.654 38.366C122.782 38.6646 122.846 39.0273 122.846 39.454C122.846 39.6246 122.889 39.9446 122.974 40.414C123.102 40.8833 123.315 41.2033 123.614 41.374C123.785 41.5446 123.422 41.9073 122.526 42.462C121.673 42.974 120.563 43.614 119.198 44.382C117.918 44.6806 116.958 44.83 116.318 44.83C115.721 44.83 115.059 44.5526 114.334 43.998C113.139 43.2726 112.371 41.9286 112.03 39.966C111.731 38.0033 111.987 35.8273 112.798 33.438C113.609 31.518 114.505 29.8753 115.486 28.51C116.51 27.102 117.577 25.822 118.686 24.67C118.857 24.4993 119.39 24.158 120.286 23.646C121.182 23.134 122.099 22.7286 123.038 22.43C124.105 22.0886 125.001 21.9606 125.726 22.046C126.494 22.0886 127.219 22.3446 127.902 22.814C128.67 22.9846 129.182 22.9633 129.438 22.75C129.737 22.5366 130.078 21.9393 130.462 20.958C131.23 18.8246 132.041 16.67 132.894 14.494C133.747 12.2753 134.643 10.0353 135.582 7.77398C136.009 6.96331 136.265 6.34464 136.35 5.91798C136.478 5.44864 136.627 5.12864 136.798 4.95798L138.59 4.38198C139.059 4.25398 139.593 4.46731 140.19 5.02198C140.83 5.57664 141.235 6.10998 141.406 6.62197C141.406 7.00598 141.235 7.85931 140.894 9.18198C140.553 10.462 139.998 11.998 139.23 13.79C138.547 15.3686 137.865 16.9686 137.182 18.59C136.542 20.1686 135.923 21.854 135.326 23.646C134.857 24.9686 134.43 26.0353 134.046 26.846C133.662 27.6566 133.406 28.3606 133.278 28.958C133.022 30.0673 132.702 31.07 132.318 31.966C131.977 32.8193 131.742 33.4166 131.614 33.758C131.059 35.3793 130.633 36.7233 130.334 37.79C130.035 38.814 129.843 39.71 129.758 40.478C129.673 41.2033 129.651 41.9286 129.694 42.654C129.737 43.3366 129.822 44.126 129.95 45.022C129.95 45.1926 129.822 45.4486 129.566 45.79C129.353 46.0886 129.097 46.3446 128.798 46.558ZM144.096 44.894C143.755 44.9793 143.307 45.022 142.752 45.022C142.197 44.9793 141.707 44.9153 141.28 44.83C140.896 44.702 140.704 44.574 140.704 44.446C140.704 44.2326 140.597 44.126 140.384 44.126C140.384 44.126 140.149 43.9553 139.68 43.614C139.211 43.23 138.784 42.9526 138.4 42.782C138.016 42.1846 137.76 41.502 137.632 40.734C137.547 39.9233 137.803 38.5153 138.4 36.51C138.443 35.1446 138.827 33.7153 139.552 32.222C140.277 30.686 141.195 29.1926 142.304 27.742C143.413 26.2913 144.565 25.0113 145.76 23.902C146.955 22.75 148.021 21.8966 148.96 21.342C149.557 20.7446 150.347 20.4246 151.328 20.382C152.352 20.3393 153.248 20.5313 154.016 20.958C154.443 21.1713 154.912 21.598 155.424 22.238C155.936 22.878 156.427 23.5606 156.896 24.286C157.365 24.9686 157.728 25.5873 157.984 26.142C158.112 26.6113 158.219 27.038 158.304 27.422C158.432 27.7633 158.517 28.19 158.56 28.702C158.603 29.214 158.56 29.982 158.432 31.006C158.219 31.774 158.027 32.5633 157.856 33.374C157.728 34.142 157.664 34.9313 157.664 35.742C157.579 36.5526 157.664 37.1286 157.92 37.47C158.219 37.8113 158.645 37.8326 159.2 37.534C159.712 37.278 160.245 37.2566 160.8 37.47C161.355 37.6406 161.739 37.982 161.952 38.494C162.208 38.9633 162.144 39.582 161.76 40.35C161.504 40.9046 161.099 41.438 160.544 41.95C159.989 42.462 159.371 42.8886 158.688 43.23C158.005 43.5286 157.344 43.678 156.704 43.678C156.235 43.678 155.765 43.5073 155.296 43.166C154.827 42.782 154.4 42.27 154.016 41.63C153.632 40.99 153.312 40.286 153.056 39.518L152.672 38.046L150.368 40.158C149.813 40.7553 149.259 41.31 148.704 41.822C148.192 42.2913 147.872 42.6326 147.744 42.846C147.531 43.23 147.104 43.5713 146.464 43.87C145.867 44.1686 145.077 44.51 144.096 44.894ZM145.824 38.75C146.549 38.3233 147.168 37.8113 147.68 37.214C148.235 36.6166 148.768 35.9553 149.28 35.23C149.792 34.462 150.347 33.6513 150.944 32.798C151.669 31.8166 152.181 31.0273 152.48 30.43C152.821 29.8326 153.077 29.1926 153.248 28.51C153.077 28.0406 152.843 27.55 152.544 27.038C152.245 26.4833 151.947 26.1846 151.648 26.142C151.051 26.142 150.325 26.5046 149.472 27.23C148.661 27.9553 147.765 29.0006 146.784 30.366C146.613 30.5793 146.4 30.9206 146.144 31.39C145.888 31.8593 145.632 32.3073 145.376 32.734C145.163 33.118 145.013 33.374 144.928 33.502C144.8 33.6726 144.608 34.078 144.352 34.718C144.139 35.3153 143.947 35.934 143.776 36.574C143.605 37.1713 143.52 37.598 143.52 37.854C143.52 38.11 143.541 38.3873 143.584 38.686C143.669 38.9846 143.883 39.1766 144.224 39.262C144.565 39.3473 145.099 39.1766 145.824 38.75ZM166.166 44.062C165.782 43.7633 165.355 43.3793 164.886 42.91C164.459 42.4406 164.31 41.7793 164.438 40.926C164.566 39.7313 164.737 38.686 164.95 37.79C165.163 36.8513 165.419 35.7846 165.718 34.59C165.803 34.078 166.017 33.2033 166.358 31.966C166.742 30.7286 167.19 29.3846 167.702 27.934C168.214 26.4833 168.747 25.118 169.302 23.838C169.857 22.5153 170.347 21.534 170.774 20.894C171.243 20.4673 171.926 20.254 172.822 20.254C173.761 20.254 174.401 20.4246 174.742 20.766C175.211 21.15 175.361 21.8326 175.19 22.814C175.019 23.7526 174.422 25.2246 173.398 27.23C173.185 27.742 172.907 28.2966 172.566 28.894C172.267 29.4486 172.054 29.918 171.926 30.302C171.798 30.6433 171.841 30.7926 172.054 30.75C172.31 30.2806 172.779 29.7473 173.462 29.15C174.145 28.51 174.87 27.8913 175.638 27.294C176.406 26.6966 177.131 26.1633 177.814 25.694C178.497 25.2246 178.966 24.926 179.222 24.798C179.563 24.5846 179.947 24.414 180.374 24.286C180.843 24.1153 181.163 23.9873 181.334 23.902C182.315 23.4326 183.382 23.262 184.534 23.39C185.729 23.4753 186.454 23.838 186.71 24.478C186.753 24.8193 186.881 25.0753 187.094 25.246C187.35 25.4166 187.478 25.502 187.478 25.502C187.649 25.502 187.734 25.566 187.734 25.694C187.777 25.822 187.798 25.886 187.798 25.886C187.798 26.1846 187.499 26.6113 186.902 27.166C186.347 27.7206 185.729 28.0193 185.046 28.062C184.491 28.1046 184.001 28.2113 183.574 28.382C183.147 28.5526 182.635 28.766 182.038 29.022C180.417 29.9606 178.945 30.7926 177.622 31.518C176.342 32.2433 175.019 33.3526 173.654 34.846C173.355 35.1873 173.035 35.5073 172.694 35.806C172.353 36.1046 172.011 36.5313 171.67 37.086C171.457 37.2993 171.243 37.7686 171.03 38.494C170.817 39.2193 170.625 39.9233 170.454 40.606C170.326 41.246 170.262 41.63 170.262 41.758C170.262 41.758 170.198 41.9713 170.07 42.398C169.942 42.782 169.729 43.166 169.43 43.55C168.918 44.2326 168.406 44.6593 167.894 44.83C167.425 45.0006 166.849 44.7446 166.166 44.062ZM211.856 50.014C211.216 49.758 210.47 49.3953 209.616 48.926C208.763 48.4993 207.952 47.9233 207.184 47.198C206.416 46.4726 205.819 45.598 205.392 44.574C204.966 43.3366 204.667 42.1206 204.496 40.926C204.368 39.7313 204.326 38.3446 204.368 36.766C204.368 34.5473 204.518 32.6273 204.816 31.006C205.158 29.342 205.67 27.6566 206.352 25.95C206.438 25.822 206.587 25.4593 206.8 24.862C207.056 24.222 207.334 23.5393 207.632 22.814C207.974 22.0886 208.23 21.534 208.4 21.15C208.742 20.4246 209.254 19.4646 209.936 18.27C210.662 17.0326 211.43 15.838 212.24 14.686C213.478 12.8513 214.523 11.358 215.376 10.206C216.23 9.01131 217.04 8.00864 217.808 7.19798C218.619 6.38731 219.494 5.59798 220.432 4.82998C221.414 4.06197 222.63 3.18731 224.08 2.20597C225.019 1.52331 226.214 1.09664 227.664 0.925976C229.158 0.755309 230.608 0.989975 232.016 1.62997C233.424 2.22731 234.47 3.37931 235.152 5.08598C235.622 5.98198 235.835 7.11264 235.792 8.47798C235.75 9.80064 235.494 11.23 235.024 12.766C234.555 14.2593 233.958 15.6673 233.232 16.99C232.507 18.3126 231.696 19.3793 230.8 20.19C230.246 20.702 229.499 20.7873 228.56 20.446C227.664 20.1046 226.918 19.6566 226.32 19.102C225.936 18.3766 225.723 17.95 225.68 17.822C225.68 17.694 225.766 17.6086 225.936 17.566C226.192 17.2673 226.534 16.7553 226.96 16.03C227.387 15.3046 227.814 14.5366 228.24 13.726C228.667 12.8726 228.966 12.19 229.136 11.678C229.478 9.88597 229.712 8.71264 229.84 8.15798C229.968 7.56064 229.84 7.06998 229.456 6.68598C229.286 6.51531 229.03 6.45131 228.688 6.49398C228.39 6.53664 227.878 6.74998 227.152 7.13398C226.171 7.56064 224.998 8.43531 223.632 9.75798C222.31 11.038 220.987 12.574 219.664 14.366C217.958 16.6273 216.528 18.6326 215.376 20.382C214.224 22.1313 213.35 23.9233 212.752 25.758C212.667 25.9286 212.518 26.2486 212.304 26.718C212.134 27.1873 212.048 27.422 212.048 27.422C212.091 27.5926 212.027 28.0193 211.856 28.702C211.686 29.342 211.494 29.8966 211.28 30.366C210.811 32.3286 210.534 34.2273 210.448 36.062C210.363 37.854 210.47 39.4326 210.768 40.798C211.11 42.1206 211.6 43.102 212.24 43.742C212.795 44.126 213.499 44.254 214.352 44.126C215.206 43.998 216.187 43.6993 217.296 43.23C218.406 42.7606 219.6 42.2486 220.88 41.694C221.904 41.2673 222.843 40.798 223.696 40.286C224.55 39.774 225.19 39.326 225.616 38.942C225.958 38.686 226.384 38.43 226.896 38.174C227.451 37.8753 227.92 37.726 228.304 37.726C228.902 37.5126 229.35 37.6833 229.648 38.238C229.947 38.7926 230.096 39.4966 230.096 40.35C230.096 40.9473 229.67 41.6726 228.816 42.526C227.963 43.3793 227.024 44.1046 226 44.702C225.659 45.0433 225.19 45.3633 224.592 45.662C224.038 45.918 223.462 46.1526 222.864 46.366C221.968 47.0486 220.859 47.71 219.536 48.35C218.214 48.99 216.87 49.4806 215.504 49.822C214.182 50.1633 212.966 50.2273 211.856 50.014ZM241.184 46.366C240.63 46.4086 240.182 46.3446 239.84 46.174C239.499 46.046 239.072 45.8326 238.56 45.534C237.622 44.8086 236.832 43.9126 236.192 42.846C235.595 41.7793 235.318 40.8833 235.36 40.158C235.446 39.774 235.446 39.4326 235.36 39.134C235.318 38.8353 235.296 38.686 235.296 38.686C235.04 38.4726 234.955 38.3446 235.04 38.302C235.126 38.2166 235.19 38.0886 235.232 37.918C235.574 37.8326 235.616 37.598 235.36 37.214C235.232 36.8726 235.296 36.1046 235.552 34.91C235.851 33.6726 236.235 32.5206 236.704 31.454C236.918 30.9846 237.216 30.366 237.6 29.598C238.027 28.83 238.496 28.062 239.008 27.294C239.52 26.4833 239.99 25.8433 240.416 25.374C241.355 24.3073 242.187 23.4326 242.912 22.75C243.68 22.0673 244.534 21.5553 245.472 21.214C246.326 20.8726 247.179 20.7233 248.032 20.766C248.928 20.8086 249.718 21.1073 250.4 21.662C251.424 21.9606 252.342 22.43 253.152 23.07C253.963 23.6673 254.518 24.5206 254.816 25.63C255.158 26.8673 255.264 28.3393 255.136 30.046C255.051 31.71 254.326 33.8646 252.96 36.51C252.15 38.174 251.339 39.518 250.528 40.542C249.76 41.566 248.822 42.5473 247.712 43.486C246.902 44.1686 245.856 44.766 244.576 45.278C243.296 45.79 242.166 46.1526 241.184 46.366ZM246.752 36.702C247.307 35.934 247.734 35.1873 248.032 34.462C248.374 33.7366 248.694 32.734 248.992 31.454C249.12 30.9846 249.184 30.4086 249.184 29.726C249.227 29.0433 249.206 28.4246 249.12 27.87C249.078 27.2726 248.928 26.9526 248.672 26.91C248.118 26.6966 247.542 26.6966 246.944 26.91C246.39 27.0806 245.728 27.5926 244.96 28.446C244.278 29.214 243.723 29.9393 243.296 30.622C242.912 31.262 242.55 32.0513 242.208 32.99C241.91 33.886 241.568 35.0593 241.184 36.51C240.843 37.918 240.822 39.0486 241.12 39.902C241.462 40.7553 242.102 40.99 243.04 40.606C243.979 40.222 245.216 38.9206 246.752 36.702ZM278.816 45.534C278.176 45.534 277.557 45.342 276.96 44.958C276.363 44.5313 275.872 43.9553 275.488 43.23C275.104 42.462 274.912 41.566 274.912 40.542C274.912 39.902 275.019 39.006 275.232 37.854C275.488 36.6593 275.851 35.166 276.32 33.374C276.405 32.7766 276.469 32.3926 276.512 32.222C276.597 32.0513 276.64 31.8806 276.64 31.71C276.64 31.6246 276.619 31.5606 276.576 31.518C276.576 31.4326 276.533 31.39 276.448 31.39C276.107 31.39 275.637 31.6246 275.04 32.094C274.485 32.5206 273.845 33.0326 273.12 33.63C272.992 33.7153 272.843 33.822 272.672 33.95C272.544 34.078 272.395 34.206 272.224 34.334C272.096 34.462 271.947 34.59 271.776 34.718C271.349 34.974 270.688 35.4646 269.792 36.19C268.939 36.9153 268.043 37.6833 267.104 38.494C266.208 39.3046 265.419 39.9873 264.736 40.542C264.395 40.798 264.096 41.0113 263.84 41.182C263.627 41.3526 263.477 41.438 263.392 41.438C263.307 41.438 262.965 41.3313 262.368 41.118C261.813 40.862 261.259 40.5206 260.704 40.094C260.192 39.6246 259.936 39.0913 259.936 38.494C259.936 38.11 260.085 37.342 260.384 36.19C260.725 35.038 261.195 33.6726 261.792 32.094C262.389 30.5153 263.072 28.9153 263.84 27.294C264.011 26.91 264.139 26.398 264.224 25.758C264.309 25.118 264.395 24.4993 264.48 23.902C264.608 23.262 264.821 22.7926 265.12 22.494C265.248 22.2806 265.397 22.1313 265.568 22.046C265.781 21.918 265.995 21.854 266.208 21.854C266.635 21.854 267.04 21.9606 267.424 22.174C267.808 22.3446 268.171 22.6433 268.512 23.07C269.152 23.7526 269.493 24.5633 269.536 25.502C269.621 26.398 269.557 27.2726 269.344 28.126C269.131 28.9793 268.896 29.6833 268.64 30.238C268.384 30.75 268.256 30.9633 268.256 30.878C268.427 30.7926 268.661 30.5793 268.96 30.238C269.301 29.8966 269.877 29.4913 270.688 29.022C271.797 28.1686 272.651 27.5713 273.248 27.23C273.845 26.846 274.293 26.5686 274.592 26.398C274.933 26.2273 275.232 26.0353 275.488 25.822C275.701 25.6513 275.851 25.5446 275.936 25.502C276.064 25.4593 276.128 25.438 276.128 25.438C276.256 25.438 276.469 25.3526 276.768 25.182C277.109 25.0113 277.429 24.926 277.728 24.926C278.155 24.926 278.603 25.0326 279.072 25.246C279.541 25.4166 279.947 25.6726 280.288 26.014C280.629 26.3126 280.8 26.6326 280.8 26.974C280.8 27.102 280.843 27.2086 280.928 27.294C281.013 27.3793 281.099 27.486 281.184 27.614C281.397 27.87 281.632 28.2326 281.888 28.702C282.187 29.1286 282.336 29.8326 282.336 30.814C282.336 31.4966 282.187 32.4993 281.888 33.822C281.589 35.1446 281.269 36.446 280.928 37.726C280.587 39.0486 280.416 40.1153 280.416 40.926C280.459 41.694 280.544 42.2913 280.672 42.718C280.8 43.102 280.864 43.422 280.864 43.678C280.864 44.0193 280.693 44.4246 280.352 44.894C280.011 45.3206 279.499 45.534 278.816 45.534ZM294.411 46.238C292.15 46.238 290.486 45.5126 289.419 44.062C289.12 43.3793 288.971 42.6966 288.971 42.014C289.014 41.2886 289.184 40.7766 289.483 40.478C289.782 40.1366 290.144 40.2006 290.571 40.67C291.126 41.0113 291.915 41.182 292.939 41.182C293.451 41.182 293.899 41.182 294.283 41.182C294.71 41.1393 295.2 41.0966 295.755 41.054C296.736 40.9686 297.355 40.67 297.611 40.158C297.91 39.646 297.846 39.2193 297.419 38.878H297.483C296.331 38.5793 295.2 38.1526 294.091 37.598C292.982 37.0433 292.043 36.4246 291.275 35.742C290.507 35.0166 290.059 34.334 289.931 33.694C289.59 32.286 289.675 30.8353 290.187 29.342C290.699 27.8486 291.446 26.5473 292.427 25.438C292.811 25.182 293.344 24.8193 294.027 24.35C294.71 23.838 295.2 23.5606 295.499 23.518V23.582C296.31 22.7286 297.227 22.046 298.251 21.534C299.275 20.9793 300.47 20.4673 301.835 19.998L302.859 19.87C303.371 19.7846 303.819 19.742 304.203 19.742C304.16 19.742 304.267 19.7846 304.523 19.87C304.779 19.9553 304.992 20.0193 305.163 20.062C305.419 20.19 305.675 20.254 305.931 20.254C306.528 20.3393 307.104 20.6593 307.659 21.214C308.256 21.726 308.726 22.3446 309.067 23.07C309.451 23.7526 309.6 24.3926 309.515 24.99C309.387 25.9713 309.024 26.9526 308.427 27.934C307.83 28.8726 307.19 29.406 306.507 29.534C306.592 29.4913 306.507 29.406 306.251 29.278C305.995 29.15 305.76 29.022 305.547 28.894L305.291 29.022C305.291 29.022 305.27 28.958 305.227 28.83C305.227 28.702 305.184 28.5526 305.099 28.382C304.928 28.0833 304.8 27.7633 304.715 27.422C304.672 27.0806 304.672 26.6966 304.715 26.27C304.8 25.8006 304.822 25.5233 304.779 25.438C304.736 25.3526 304.48 25.2886 304.011 25.246C303.456 25.118 302.752 25.182 301.899 25.438C301.046 25.6513 300.256 26.0353 299.531 26.59C298.678 27.1446 298.038 27.5926 297.611 27.934C297.227 28.2753 296.928 28.6166 296.715 28.958C296.502 29.2566 296.267 29.7046 296.011 30.302C295.84 30.6006 295.691 30.878 295.563 31.134C295.435 31.3473 295.371 31.5606 295.371 31.774C295.371 32.2006 295.734 32.6486 296.459 33.118C297.184 33.5446 298.272 34.0566 299.723 34.654C300.875 35.1233 301.622 35.7633 301.963 36.574C302.347 37.3846 302.688 38.1526 302.987 38.878C303.072 39.0486 303.158 39.3686 303.243 39.838C303.371 40.2646 303.392 40.5206 303.307 40.606C303.392 40.6913 303.435 40.7766 303.435 40.862V40.798C303.776 41.438 303.712 42.1206 303.243 42.846C302.816 43.5286 302.134 44.1686 301.195 44.766C300.256 45.3206 299.19 45.726 297.995 45.982H298.059C297.419 46.0673 296.779 46.1313 296.139 46.174C295.542 46.2166 294.966 46.238 294.411 46.238ZM325.854 45.662C325.427 45.2353 325.086 44.6593 324.83 43.934C324.574 43.166 324.318 42.2913 324.062 41.31C323.977 40.9686 323.934 40.5846 323.934 40.158C323.977 39.7313 323.977 39.39 323.934 39.134C323.806 39.4326 323.593 39.8166 323.294 40.286C323.038 40.7553 322.782 41.0966 322.526 41.31C322.355 41.4806 321.971 41.822 321.374 42.334C320.777 42.8033 320.179 43.1873 319.582 43.486C318.174 44.382 316.915 44.8086 315.806 44.766C314.739 44.6806 313.801 44.126 312.99 43.102C312.307 42.5473 311.753 41.8433 311.326 40.99C310.899 40.1366 310.814 39.1126 311.07 37.918C311.155 36.4246 311.369 34.974 311.71 33.566C312.051 32.1153 312.755 30.1953 313.822 27.806C314.718 26.0566 315.401 24.6913 315.87 23.71C316.339 22.7286 316.638 22.1526 316.766 21.982C317.406 21.7686 318.195 21.79 319.134 22.046C320.073 22.2593 320.585 22.6646 320.67 23.262C320.926 23.6886 320.926 24.4993 320.67 25.694C320.414 26.846 319.902 28.1686 319.134 29.662C318.537 31.1126 317.961 32.5206 317.406 33.886C316.894 35.2513 316.574 36.4033 316.446 37.342C316.361 38.2806 316.617 38.8566 317.214 39.07C317.598 39.2833 318.153 39.262 318.878 39.006C319.646 38.75 320.542 37.982 321.566 36.702C322.59 35.422 323.678 33.3953 324.83 30.622C325.171 29.7686 325.427 29.022 325.598 28.382C325.769 27.6993 325.875 26.9526 325.918 26.142C325.833 25.63 325.961 25.0966 326.302 24.542C326.686 23.9873 327.134 23.5606 327.646 23.262C327.817 23.0486 328.051 22.8566 328.35 22.686C328.649 22.4726 328.841 22.4726 328.926 22.686L329.95 22.622C330.121 22.5793 330.313 22.75 330.526 23.134C330.739 23.518 330.953 23.7953 331.166 23.966C331.635 24.35 331.849 25.182 331.806 26.462C331.763 27.742 331.251 29.534 330.27 31.838C329.459 33.5873 328.905 34.91 328.606 35.806C328.35 36.702 328.201 37.5766 328.158 38.43C328.158 39.198 328.222 39.8593 328.35 40.414C328.478 40.926 328.862 41.4593 329.502 42.014C329.971 42.3126 330.227 42.8246 330.27 43.55C330.355 44.2326 330.377 44.83 330.334 45.342C330.249 45.726 329.907 45.982 329.31 46.11C328.755 46.2806 328.137 46.3233 327.454 46.238C326.814 46.1526 326.281 45.9606 325.854 45.662ZM338.05 46.494C337.24 46.7073 336.514 46.4726 335.874 45.79C335.234 45.15 334.786 44.19 334.53 42.91C334.274 41.63 334.317 40.2006 334.658 38.622C334.872 38.11 335.042 37.6193 335.17 37.15C335.298 36.638 335.362 36.2326 335.362 35.934C335.448 35.5073 335.618 34.8886 335.874 34.078C336.13 33.2246 336.408 32.35 336.706 31.454C337.005 30.558 337.282 29.7686 337.538 29.086C337.837 28.3606 338.029 27.9126 338.114 27.742C338.285 27.742 338.434 27.5926 338.562 27.294C338.69 26.9953 338.754 26.6966 338.754 26.398C338.754 26.0566 338.818 25.6726 338.946 25.246C339.117 24.8193 339.288 24.5206 339.458 24.35C339.458 24.1366 339.501 23.902 339.586 23.646C339.714 23.3473 339.778 23.1126 339.778 22.942C339.778 22.7713 339.821 22.6006 339.906 22.43C340.034 22.2593 340.098 22.0886 340.098 21.918C340.397 21.3633 340.781 20.4886 341.25 19.294C341.762 18.0566 342.296 16.6913 342.85 15.198C343.448 13.7046 344.002 12.2326 344.514 10.782C345.026 9.33131 345.432 8.11531 345.73 7.13398C346.072 6.10998 346.242 5.49131 346.242 5.27798C346.242 4.93664 346.37 4.61664 346.626 4.31798C346.882 4.01931 347.181 3.86998 347.522 3.86998C347.65 3.74198 347.949 3.65664 348.418 3.61398C348.888 3.52864 349.208 3.48598 349.378 3.48598C349.378 3.48598 349.464 3.57131 349.634 3.74198C349.805 3.91264 350.061 4.16864 350.402 4.50998C350.744 4.80864 351.064 5.14998 351.362 5.53398C351.704 5.91798 351.874 6.36598 351.874 6.87798C351.874 7.43264 351.789 7.96598 351.618 8.47798C351.49 8.98998 351.234 9.69398 350.85 10.59C350.466 11.4433 349.869 12.7233 349.058 14.43C348.717 15.2833 348.354 16.094 347.97 16.862C347.586 17.5873 347.394 18.0353 347.394 18.206C347.394 18.3766 347.309 18.6326 347.138 18.974C347.01 19.3153 346.861 19.742 346.69 20.254C346.52 20.5953 346.285 21.1073 345.986 21.79C345.688 22.43 345.368 23.134 345.026 23.902C344.728 24.6273 344.472 25.2673 344.258 25.822C344.045 26.334 343.938 26.6326 343.938 26.718C343.938 26.8886 343.917 27.0593 343.874 27.23C343.874 27.4006 343.789 27.5713 343.618 27.742C343.448 27.742 343.341 27.87 343.298 28.126C343.298 28.3393 343.298 28.446 343.298 28.446C343.298 28.8726 342.957 30.0033 342.274 31.838C341.592 34.1846 340.952 36.3393 340.354 38.302C339.8 40.2646 339.522 41.8433 339.522 43.038C339.522 44.062 339.352 44.8513 339.01 45.406C338.712 45.9606 338.392 46.3233 338.05 46.494ZM355.358 46.174C354.76 46.0033 354.163 45.7046 353.566 45.278C352.968 44.8513 352.35 44.3606 351.71 43.806C351.198 43.1233 350.835 42.5046 350.622 41.95C350.408 41.3526 350.28 40.67 350.238 39.902C350.238 39.0913 350.238 38.0673 350.238 36.83C350.238 36.318 350.323 35.5926 350.494 34.654C350.707 33.7153 350.92 32.734 351.134 31.71C351.39 30.686 351.624 29.79 351.838 29.022C352.051 28.2113 352.179 27.678 352.222 27.422C352.35 26.8673 352.136 26.5473 351.582 26.462C351.027 26.3766 350.408 26.3553 349.726 26.398C349.086 26.398 348.659 26.334 348.446 26.206C348.275 26.1633 348.19 25.95 348.19 25.566C348.19 25.1393 348.19 24.926 348.19 24.926C348.19 24.7553 348.104 24.6486 347.934 24.606C347.763 24.5206 347.614 24.3713 347.486 24.158C347.4 23.9873 347.507 23.6673 347.806 23.198C348.104 22.7286 348.488 22.4513 348.958 22.366C349.342 22.2806 349.918 22.2166 350.686 22.174C351.454 22.0886 352.222 21.9393 352.99 21.726C353.8 21.47 354.419 21.086 354.846 20.574C355.23 19.6353 355.656 18.6326 356.126 17.566C356.595 16.4566 357.043 15.4966 357.47 14.686C357.896 13.8326 358.195 13.2993 358.366 13.086C359.091 12.702 359.838 12.5526 360.606 12.638C361.374 12.6806 361.971 13.0433 362.398 13.726C362.611 14.0246 362.782 14.238 362.91 14.366C363.08 14.494 363.144 14.686 363.102 14.942C363.102 15.198 362.931 15.6673 362.59 16.35C362.291 16.99 361.779 17.9926 361.054 19.358C360.84 19.7846 360.648 20.1686 360.478 20.51C360.307 20.8086 360.222 20.958 360.222 20.958C360.392 21.0006 360.648 21.022 360.99 21.022C361.331 21.022 361.758 21.0006 362.27 20.958C362.739 20.8726 363.251 20.8086 363.806 20.766C364.36 20.6806 364.851 20.6806 365.278 20.766C366.259 20.766 366.984 21.0433 367.454 21.598C367.923 22.1526 368.179 22.8566 368.222 23.71C368.307 24.1793 368.136 24.5846 367.71 24.926C367.283 25.2673 366.494 25.438 365.342 25.438C364.958 25.438 364.403 25.4593 363.678 25.502C362.952 25.5446 362.206 25.5873 361.438 25.63C360.67 25.6726 360.008 25.7366 359.454 25.822C358.942 25.8646 358.686 25.9286 358.686 26.014C358.558 26.0993 358.344 26.4406 358.046 27.038C357.79 27.5926 357.512 28.2753 357.214 29.086C356.958 29.8966 356.723 30.6646 356.51 31.39C356.211 32.8406 355.998 34.2486 355.87 35.614C355.742 36.9793 355.72 38.174 355.806 39.198C355.934 40.1793 356.19 40.8833 356.574 41.31C356.958 41.694 357.534 41.694 358.302 41.31C359.112 40.8833 359.859 40.3926 360.542 39.838C361.31 39.198 361.971 39.006 362.526 39.262C363.08 39.4753 363.422 39.9446 363.55 40.67C363.72 41.3526 363.528 42.0993 362.974 42.91C362.462 43.7206 361.736 44.4033 360.798 44.958C359.859 45.5126 358.899 45.8966 357.918 46.11C356.936 46.366 356.083 46.3873 355.358 46.174ZM374.221 44.894C373.88 44.9793 373.432 45.022 372.877 45.022C372.322 44.9793 371.832 44.9153 371.405 44.83C371.021 44.702 370.829 44.574 370.829 44.446C370.829 44.2326 370.722 44.126 370.509 44.126C370.509 44.126 370.274 43.9553 369.805 43.614C369.336 43.23 368.909 42.9526 368.525 42.782C368.141 42.1846 367.885 41.502 367.757 40.734C367.672 39.9233 367.928 38.5153 368.525 36.51C368.568 35.1446 368.952 33.7153 369.677 32.222C370.402 30.686 371.32 29.1926 372.429 27.742C373.538 26.2913 374.69 25.0113 375.885 23.902C377.08 22.75 378.146 21.8966 379.085 21.342C379.682 20.7446 380.472 20.4246 381.453 20.382C382.477 20.3393 383.373 20.5313 384.141 20.958C384.568 21.1713 385.037 21.598 385.549 22.238C386.061 22.878 386.552 23.5606 387.021 24.286C387.49 24.9686 387.853 25.5873 388.109 26.142C388.237 26.6113 388.344 27.038 388.429 27.422C388.557 27.7633 388.642 28.19 388.685 28.702C388.728 29.214 388.685 29.982 388.557 31.006C388.344 31.774 388.152 32.5633 387.981 33.374C387.853 34.142 387.789 34.9313 387.789 35.742C387.704 36.5526 387.789 37.1286 388.045 37.47C388.344 37.8113 388.77 37.8326 389.325 37.534C389.837 37.278 390.37 37.2566 390.925 37.47C391.48 37.6406 391.864 37.982 392.077 38.494C392.333 38.9633 392.269 39.582 391.885 40.35C391.629 40.9046 391.224 41.438 390.669 41.95C390.114 42.462 389.496 42.8886 388.813 43.23C388.13 43.5286 387.469 43.678 386.829 43.678C386.36 43.678 385.89 43.5073 385.421 43.166C384.952 42.782 384.525 42.27 384.141 41.63C383.757 40.99 383.437 40.286 383.181 39.518L382.797 38.046L380.493 40.158C379.938 40.7553 379.384 41.31 378.829 41.822C378.317 42.2913 377.997 42.6326 377.869 42.846C377.656 43.23 377.229 43.5713 376.589 43.87C375.992 44.1686 375.202 44.51 374.221 44.894ZM375.949 38.75C376.674 38.3233 377.293 37.8113 377.805 37.214C378.36 36.6166 378.893 35.9553 379.405 35.23C379.917 34.462 380.472 33.6513 381.069 32.798C381.794 31.8166 382.306 31.0273 382.605 30.43C382.946 29.8326 383.202 29.1926 383.373 28.51C383.202 28.0406 382.968 27.55 382.669 27.038C382.37 26.4833 382.072 26.1846 381.773 26.142C381.176 26.142 380.45 26.5046 379.597 27.23C378.786 27.9553 377.89 29.0006 376.909 30.366C376.738 30.5793 376.525 30.9206 376.269 31.39C376.013 31.8593 375.757 32.3073 375.501 32.734C375.288 33.118 375.138 33.374 375.053 33.502C374.925 33.6726 374.733 34.078 374.477 34.718C374.264 35.3153 374.072 35.934 373.901 36.574C373.73 37.1713 373.645 37.598 373.645 37.854C373.645 38.11 373.666 38.3873 373.709 38.686C373.794 38.9846 374.008 39.1766 374.349 39.262C374.69 39.3473 375.224 39.1766 375.949 38.75ZM401.411 46.238C399.15 46.238 397.486 45.5126 396.419 44.062C396.12 43.3793 395.971 42.6966 395.971 42.014C396.014 41.2886 396.184 40.7766 396.483 40.478C396.782 40.1366 397.144 40.2006 397.571 40.67C398.126 41.0113 398.915 41.182 399.939 41.182C400.451 41.182 400.899 41.182 401.283 41.182C401.71 41.1393 402.2 41.0966 402.755 41.054C403.736 40.9686 404.355 40.67 404.611 40.158C404.91 39.646 404.846 39.2193 404.419 38.878H404.483C403.331 38.5793 402.2 38.1526 401.091 37.598C399.982 37.0433 399.043 36.4246 398.275 35.742C397.507 35.0166 397.059 34.334 396.931 33.694C396.59 32.286 396.675 30.8353 397.187 29.342C397.699 27.8486 398.446 26.5473 399.427 25.438C399.811 25.182 400.344 24.8193 401.027 24.35C401.71 23.838 402.2 23.5606 402.499 23.518V23.582C403.31 22.7286 404.227 22.046 405.251 21.534C406.275 20.9793 407.47 20.4673 408.835 19.998L409.859 19.87C410.371 19.7846 410.819 19.742 411.203 19.742C411.16 19.742 411.267 19.7846 411.523 19.87C411.779 19.9553 411.992 20.0193 412.163 20.062C412.419 20.19 412.675 20.254 412.931 20.254C413.528 20.3393 414.104 20.6593 414.659 21.214C415.256 21.726 415.726 22.3446 416.067 23.07C416.451 23.7526 416.6 24.3926 416.515 24.99C416.387 25.9713 416.024 26.9526 415.427 27.934C414.83 28.8726 414.19 29.406 413.507 29.534C413.592 29.4913 413.507 29.406 413.251 29.278C412.995 29.15 412.76 29.022 412.547 28.894L412.291 29.022C412.291 29.022 412.27 28.958 412.227 28.83C412.227 28.702 412.184 28.5526 412.099 28.382C411.928 28.0833 411.8 27.7633 411.715 27.422C411.672 27.0806 411.672 26.6966 411.715 26.27C411.8 25.8006 411.822 25.5233 411.779 25.438C411.736 25.3526 411.48 25.2886 411.011 25.246C410.456 25.118 409.752 25.182 408.899 25.438C408.046 25.6513 407.256 26.0353 406.531 26.59C405.678 27.1446 405.038 27.5926 404.611 27.934C404.227 28.2753 403.928 28.6166 403.715 28.958C403.502 29.2566 403.267 29.7046 403.011 30.302C402.84 30.6006 402.691 30.878 402.563 31.134C402.435 31.3473 402.371 31.5606 402.371 31.774C402.371 32.2006 402.734 32.6486 403.459 33.118C404.184 33.5446 405.272 34.0566 406.723 34.654C407.875 35.1233 408.622 35.7633 408.963 36.574C409.347 37.3846 409.688 38.1526 409.987 38.878C410.072 39.0486 410.158 39.3686 410.243 39.838C410.371 40.2646 410.392 40.5206 410.307 40.606C410.392 40.6913 410.435 40.7766 410.435 40.862V40.798C410.776 41.438 410.712 42.1206 410.243 42.846C409.816 43.5286 409.134 44.1686 408.195 44.766C407.256 45.3206 406.19 45.726 404.995 45.982H405.059C404.419 46.0673 403.779 46.1313 403.139 46.174C402.542 46.2166 401.966 46.238 401.411 46.238Z" fill="#F8FCFE"/>
</svg>
