<svg width="140" height="149" viewBox="0 0 140 149" fill="none" xmlns="http://www.w3.org/2000/svg">
<path d="M45.36 75.725H36.54C35 75.725 33.74 74.3974 33.74 72.7748V63.4817C33.74 61.859 35 60.5315 36.54 60.5315H45.36C46.9 60.5315 48.16 61.859 48.16 63.4817V72.7748C48.16 74.3974 46.9 75.725 45.36 75.725Z" stroke="#EF0606" stroke-width="4" stroke-miterlimit="10" stroke-linecap="round" stroke-linejoin="round"/>
<path d="M66.7802 75.725H57.9602C56.4202 75.725 55.1602 74.3974 55.1602 72.7748V63.4817C55.1602 61.859 56.4202 60.5315 57.9602 60.5315H66.7802C68.3202 60.5315 69.5802 61.859 69.5802 63.4817V72.7748C69.5802 74.3974 68.3202 75.725 66.7802 75.725Z" stroke="#2D3547" stroke-width="2" stroke-miterlimit="10"/>
<path d="M46.48 34.5697H37.8C36.26 34.5697 35 33.2422 35 31.6195V19.5237C35 17.9011 36.26 16.5735 37.8 16.5735H46.48C48.02 16.5735 49.28 17.9011 49.28 19.5237V31.6195C49.28 33.2422 48.02 34.5697 46.48 34.5697Z" stroke="#2D3547" stroke-width="2" stroke-miterlimit="10"/>
<path d="M105.56 34.5697H96.8798C95.3398 34.5697 94.0798 33.2422 94.0798 31.6195V19.5237C94.0798 17.9011 95.3398 16.5735 96.8798 16.5735H105.56C107.1 16.5735 108.36 17.9011 108.36 19.5237V31.6195C108.36 33.2422 107.1 34.5697 105.56 34.5697Z" stroke="#2D3547" stroke-width="2" stroke-miterlimit="10"/>
<path d="M45.36 99.0315H36.54C35 99.0315 33.74 97.7039 33.74 96.0813V86.7882C33.74 85.1656 35 83.838 36.54 83.838H45.36C46.9 83.838 48.16 85.1656 48.16 86.7882V96.0813C48.16 97.7039 46.9 99.0315 45.36 99.0315Z" stroke="#2D3547" stroke-width="2" stroke-miterlimit="10"/>
<path d="M45.36 121.011H36.54C35 121.011 33.74 119.683 33.74 118.06V108.767C33.74 107.145 35 105.817 36.54 105.817H45.36C46.9 105.817 48.16 107.145 48.16 108.767V118.06C48.16 119.683 46.9 121.011 45.36 121.011Z" stroke="#2D3547" stroke-width="2" stroke-miterlimit="10"/>
<path d="M88.0599 75.725H79.2399C77.6999 75.725 76.4399 74.3974 76.4399 72.7748V63.4817C76.4399 61.859 77.6999 60.5315 79.2399 60.5315H88.0599C89.5999 60.5315 90.8599 61.859 90.8599 63.4817V72.7748C90.8599 74.3974 89.5999 75.725 88.0599 75.725Z" stroke="#2D3547" stroke-width="2" stroke-miterlimit="10"/>
<path d="M109.34 75.725H100.52C98.98 75.725 97.72 74.3974 97.72 72.7748V63.4817C97.72 61.859 98.98 60.5315 100.52 60.5315H109.34C110.88 60.5315 112.14 61.859 112.14 63.4817V72.7748C112.14 74.3974 110.88 75.725 109.34 75.725Z" stroke="#2D3547" stroke-width="2" stroke-miterlimit="10"/>
<path d="M84.9799 135.319H28.1399C25.0599 135.319 22.3999 132.664 22.3999 129.271V46.3705H120.12V75.1349" stroke="#2D3547" stroke-width="4" stroke-miterlimit="10" stroke-linecap="round" stroke-linejoin="round"/>
<path d="M22.54 46.3705V31.6195C22.54 28.3743 25.06 25.5716 28.28 25.5716H33.6" stroke="#2D3547" stroke-width="4" stroke-miterlimit="10" stroke-linejoin="round"/>
<path d="M120.26 46.3705V31.6195C120.26 28.3743 117.74 25.5716 114.52 25.5716H110.6" stroke="#2D3547" stroke-width="4" stroke-miterlimit="10" stroke-linecap="round" stroke-linejoin="round"/>
<path d="M47.8799 25.5716H94.6399" stroke="#2D3547" stroke-width="4" stroke-miterlimit="10"/>
<path d="M78.4 93.7212L80.92 85.6082C80.92 84.7231 79.94 84.1331 79.1 84.5756L64.4 92.6886C63.56 93.1312 63.56 94.1637 64.4 94.6063L79.1 102.572C79.94 103.014 81.06 102.277 80.92 101.392L78.4 93.7212ZM78.4 93.7212H116.48C118.86 93.7212 120.68 95.4913 120.68 97.704V105.522" stroke="#EF0606" stroke-width="4" stroke-miterlimit="10" stroke-linecap="round" stroke-linejoin="round"/>
<path d="M111.02 124.846L108.64 132.959C108.64 133.844 109.62 134.434 110.46 133.991L125.16 125.878C126 125.436 126 124.256 125.16 123.813L110.32 115.995C109.48 115.553 108.36 116.29 108.5 117.175L111.02 124.846ZM111.02 124.846H74.0601C71.6801 124.846 69.8601 123.076 69.8601 120.863V112.897" stroke="#EF0606" stroke-width="4" stroke-miterlimit="10" stroke-linecap="round" stroke-linejoin="round"/>
</svg>
