<svg width="135" height="26" viewBox="0 0 135 26" fill="none" xmlns="http://www.w3.org/2000/svg">
<path d="M4.072 25.5019C3.752 25.3739 3.37867 25.1926 2.952 24.9579C2.52533 24.7446 2.12 24.4566 1.736 24.0939C1.352 23.7312 1.05333 23.2939 0.84 22.7819C0.626667 22.1632 0.477334 21.5552 0.392 20.9579C0.328 20.3606 0.306667 19.6672 0.328 18.8779C0.328 17.7686 0.402667 16.8086 0.552 15.9979C0.722667 15.1659 0.978667 14.3232 1.32 13.4699C1.36267 13.4059 1.43733 13.2246 1.544 12.9259C1.672 12.6059 1.81067 12.2646 1.96 11.9019C2.13067 11.5392 2.25867 11.2619 2.344 11.0699C2.51467 10.7072 2.77067 10.2272 3.112 9.62989C3.47467 9.01123 3.85867 8.41389 4.264 7.83789C4.88267 6.92056 5.40533 6.17389 5.832 5.59789C6.25867 5.00056 6.664 4.49922 7.048 4.09389C7.45333 3.68856 7.89067 3.29389 8.36 2.90989C8.85067 2.52589 9.45867 2.08856 10.184 1.59789C10.6533 1.25656 11.2507 1.04322 11.976 0.957891C12.7227 0.872558 13.448 0.989891 14.152 1.30989C14.856 1.60856 15.3787 2.18456 15.72 3.03789C15.9547 3.48589 16.0613 4.05123 16.04 4.73389C16.0187 5.39522 15.8907 6.10989 15.656 6.87789C15.4213 7.62456 15.1227 8.32856 14.76 8.98989C14.3973 9.65123 13.992 10.1846 13.544 10.5899C13.2667 10.8459 12.8933 10.8886 12.424 10.7179C11.976 10.5472 11.6027 10.3232 11.304 10.0459C11.112 9.68323 11.0053 9.46989 10.984 9.40589C10.984 9.34189 11.0267 9.29923 11.112 9.27789C11.24 9.12856 11.4107 8.87256 11.624 8.50989C11.8373 8.14723 12.0507 7.76322 12.264 7.35789C12.4773 6.93122 12.6267 6.58989 12.712 6.33389C12.8827 5.43789 13 4.85122 13.064 4.57389C13.128 4.27522 13.064 4.02989 12.872 3.83789C12.7867 3.75256 12.6587 3.72056 12.488 3.74189C12.3387 3.76322 12.0827 3.86989 11.72 4.06189C11.2293 4.27522 10.6427 4.71256 9.96 5.37389C9.29867 6.01389 8.63733 6.78189 7.976 7.67789C7.12267 8.80856 6.408 9.81123 5.832 10.6859C5.256 11.5606 4.81867 12.4566 4.52 13.3739C4.47733 13.4592 4.40267 13.6192 4.296 13.8539C4.21067 14.0886 4.168 14.2059 4.168 14.2059C4.18933 14.2912 4.15733 14.5046 4.072 14.8459C3.98667 15.1659 3.89067 15.4432 3.784 15.6779C3.54933 16.6592 3.41067 17.6086 3.368 18.5259C3.32533 19.4219 3.37867 20.2112 3.528 20.8939C3.69867 21.5552 3.944 22.0459 4.264 22.3659C4.54133 22.5579 4.89333 22.6219 5.32 22.5579C5.74667 22.4939 6.23733 22.3446 6.792 22.1099C7.34667 21.8752 7.944 21.6192 8.584 21.3419C9.096 21.1286 9.56533 20.8939 9.992 20.6379C10.4187 20.3819 10.7387 20.1579 10.952 19.9659C11.1227 19.8379 11.336 19.7099 11.592 19.5819C11.8693 19.4326 12.104 19.3579 12.296 19.3579C12.5947 19.2512 12.8187 19.3366 12.968 19.6139C13.1173 19.8912 13.192 20.2432 13.192 20.6699C13.192 20.9686 12.9787 21.3312 12.552 21.7579C12.1253 22.1846 11.656 22.5472 11.144 22.8459C10.9733 23.0166 10.7387 23.1766 10.44 23.3259C10.1627 23.4539 9.87467 23.5712 9.576 23.6779C9.128 24.0192 8.57333 24.3499 7.912 24.6699C7.25067 24.9899 6.57867 25.2352 5.896 25.4059C5.23467 25.5766 4.62667 25.6086 4.072 25.5019ZM16.518 22.7179C16.4327 22.5472 16.2407 22.3766 15.942 22.2059C15.6647 22.0352 15.526 21.9072 15.526 21.8219C15.526 21.7366 15.4727 21.6086 15.366 21.4379C15.2807 21.2459 15.1953 21.1072 15.11 21.0219C15.0033 20.8939 15.0353 20.5846 15.206 20.0939C15.3767 19.5819 15.6327 18.9632 15.974 18.2379C16.3153 17.5126 16.6887 16.7766 17.094 16.0299C17.2647 15.8592 17.4353 15.6352 17.606 15.3579C17.7767 15.0806 17.9047 14.8992 17.99 14.8139C17.99 14.7286 18.022 14.6539 18.086 14.5899C18.15 14.5046 18.2247 14.4619 18.31 14.4619L18.566 13.9499C18.6087 13.8646 18.7367 13.6939 18.95 13.4379C19.1847 13.1819 19.462 12.9046 19.782 12.6059C20.102 12.2859 20.422 11.9872 20.742 11.7099C21.0833 11.4326 21.3607 11.2299 21.574 11.1019C22.022 10.8032 22.4807 10.6646 22.95 10.6859C23.4407 10.7072 23.8567 10.8566 24.198 11.1339C24.262 11.1979 24.4007 11.3259 24.614 11.5179C24.8487 11.7099 25.1047 11.9232 25.382 12.1579C25.6807 12.3926 25.9367 12.6059 26.15 12.7979L27.334 13.8539L26.79 15.4539C26.5127 16.3072 26.438 17.0539 26.566 17.6939C26.694 18.3339 26.8967 18.8886 27.174 19.3579C27.2807 19.5926 27.4193 19.7739 27.59 19.9019C27.782 20.0299 28.0273 20.1152 28.326 20.1579C28.4967 20.1792 28.6567 20.2432 28.806 20.3499C28.9553 20.4566 29.03 20.6272 29.03 20.8619C29.03 21.3739 28.934 21.7472 28.742 21.9819C28.5713 22.1952 28.3793 22.3232 28.166 22.3659C27.462 22.4512 26.79 22.3766 26.15 22.1419C25.51 21.9072 24.934 21.2992 24.422 20.3179C24.3367 20.1899 24.2193 19.9552 24.07 19.6139C23.942 19.2512 23.8673 19.0166 23.846 18.9099C23.7607 19.0166 23.6433 19.1552 23.494 19.3259C23.366 19.4752 23.238 19.6139 23.11 19.7419C21.5953 21.2779 20.294 22.2806 19.206 22.7499C18.1393 23.1979 17.2433 23.1872 16.518 22.7179ZM18.278 20.0619C18.4273 20.0832 18.662 20.0086 18.982 19.8379C19.302 19.6459 19.7287 19.3366 20.262 18.9099C20.9873 18.2912 21.5847 17.7792 22.054 17.3739C22.5233 16.9686 22.982 16.4459 23.43 15.8059L24.134 14.6539C23.9207 14.1632 23.7287 13.8432 23.558 13.6939C23.3873 13.5446 23.2167 13.4699 23.046 13.4699C22.7687 13.4699 22.438 13.6512 22.054 14.0139C21.67 14.3552 21.2327 14.8672 20.742 15.5499C20.2727 16.2112 19.7393 17.0432 19.142 18.0459C18.8647 18.5152 18.6513 18.9739 18.502 19.4219C18.3527 19.8486 18.278 20.0619 18.278 20.0619ZM39.0993 23.9979C38.8219 24.0619 38.5446 23.9872 38.2673 23.7739C38.0113 23.5819 37.8299 23.3686 37.7233 23.1339C37.5953 22.7926 37.5099 22.4726 37.4673 22.1739C37.4459 21.8539 37.4246 21.4912 37.4033 21.0859L37.3713 19.9979L36.0593 21.1819C35.3339 21.8646 34.6513 22.3552 34.0113 22.6539C33.3926 22.9312 32.8273 23.0699 32.3153 23.0699C32.0806 23.0272 31.7926 22.8779 31.4513 22.6219C31.1313 22.3446 30.8326 22.0459 30.5553 21.7259C30.2993 21.3846 30.1179 21.1072 30.0113 20.8939C29.8833 20.5952 29.8406 20.1792 29.8833 19.6459C29.9473 19.1126 30.0753 18.5259 30.2673 17.8859C30.4806 17.2459 30.7366 16.6166 31.0353 15.9979C31.3553 15.3792 31.7179 14.8459 32.1233 14.3979C32.8273 13.3312 33.7019 12.6699 34.7473 12.4139C35.7926 12.1366 36.7206 12.2219 37.5313 12.6699C37.9153 12.8619 38.1926 12.9366 38.3633 12.8939C38.5339 12.8512 38.6406 12.7126 38.6833 12.4779C38.7686 12.1366 38.8646 11.8166 38.9713 11.5179C39.0779 11.2192 39.2273 10.7712 39.4193 10.1739C39.9526 8.55256 40.4113 7.28323 40.7953 6.36589C41.2006 5.44856 41.5633 4.64856 41.8833 3.96589C42.1179 3.47522 42.3526 3.13389 42.5873 2.94189C42.8219 2.74989 43.0246 2.66456 43.1953 2.68589C43.4299 2.68589 43.7179 2.77122 44.0593 2.94189C44.4219 3.11256 44.6566 3.34722 44.7633 3.64589C44.8486 3.83789 44.8806 4.04056 44.8593 4.25389C44.8593 4.46723 44.7953 4.69123 44.6673 4.92589C44.3899 5.43789 44.0593 6.12056 43.6753 6.97389C43.3126 7.80589 42.9393 8.72322 42.5553 9.72589C42.1926 10.7286 41.8513 11.7206 41.5313 12.7019C41.2113 13.6832 40.9446 14.5472 40.7313 15.2939C40.6033 15.7632 40.4966 16.3606 40.4113 17.0859C40.3473 17.8112 40.2939 18.5579 40.2513 19.3259C40.2299 20.0726 40.2299 20.7446 40.2513 21.3419C40.2726 21.9179 40.3046 22.2912 40.3473 22.4619C40.4753 22.8886 40.4753 23.2086 40.3473 23.4219C40.2193 23.6352 40.0379 23.7739 39.8033 23.8379C39.5686 23.9232 39.3339 23.9766 39.0993 23.9979ZM33.8193 20.1259C34.1179 20.0192 34.3846 19.8912 34.6193 19.7419C34.8539 19.5926 35.1313 19.4006 35.4513 19.1659C36.0913 18.6752 36.5499 18.2486 36.8273 17.8859C37.1259 17.5232 37.3606 17.0752 37.5313 16.5419C37.6379 16.2219 37.6379 15.9446 37.5313 15.7099C37.4459 15.4752 37.2859 15.2512 37.0513 15.0379C36.8166 14.8459 36.5179 14.7712 36.1553 14.8139C35.7926 14.8352 35.3766 15.0592 34.9073 15.4859C34.3953 15.9552 33.9579 16.4992 33.5953 17.1179C33.2326 17.7366 32.9339 18.6219 32.6993 19.7739C32.6566 19.9872 32.7313 20.1366 32.9233 20.2219C33.1153 20.3072 33.4139 20.2752 33.8193 20.1259ZM46.3543 22.9419C46.1836 22.9846 45.9596 23.0059 45.6823 23.0059C45.4049 22.9846 45.1596 22.9526 44.9463 22.9099C44.7543 22.8459 44.6583 22.7819 44.6583 22.7179C44.6583 22.6112 44.6049 22.5579 44.4983 22.5579C44.4983 22.5579 44.3809 22.4726 44.1463 22.3019C43.9116 22.1099 43.6983 21.9712 43.5063 21.8859C43.3143 21.5872 43.1863 21.2459 43.1223 20.8619C43.0796 20.4566 43.2076 19.7526 43.5063 18.7499C43.5276 18.0672 43.7196 17.3526 44.0823 16.6059C44.4449 15.8379 44.9036 15.0912 45.4583 14.3659C46.0129 13.6406 46.5889 13.0006 47.1863 12.4459C47.7836 11.8699 48.3169 11.4432 48.7863 11.1659C49.0849 10.8672 49.4796 10.7072 49.9703 10.6859C50.4823 10.6646 50.9303 10.7606 51.3143 10.9739C51.5276 11.0806 51.7623 11.2939 52.0183 11.6139C52.2743 11.9339 52.5196 12.2752 52.7543 12.6379C52.9889 12.9792 53.1703 13.2886 53.2983 13.5659C53.3623 13.8006 53.4156 14.0139 53.4583 14.2059C53.5223 14.3766 53.5649 14.5899 53.5863 14.8459C53.6076 15.1019 53.5863 15.4859 53.5223 15.9979C53.4156 16.3819 53.3196 16.7766 53.2343 17.1819C53.1703 17.5659 53.1383 17.9606 53.1383 18.3659C53.0956 18.7712 53.1383 19.0592 53.2663 19.2299C53.4156 19.4006 53.6289 19.4112 53.9063 19.2619C54.1623 19.1339 54.4289 19.1232 54.7063 19.2299C54.9836 19.3152 55.1756 19.4859 55.2823 19.7419C55.4103 19.9766 55.3783 20.2859 55.1863 20.6699C55.0583 20.9472 54.8556 21.2139 54.5783 21.4699C54.3009 21.7259 53.9916 21.9392 53.6503 22.1099C53.3089 22.2592 52.9783 22.3339 52.6583 22.3339C52.4236 22.3339 52.1889 22.2486 51.9543 22.0779C51.7196 21.8859 51.5063 21.6299 51.3143 21.3099C51.1223 20.9899 50.9623 20.6379 50.8343 20.2539L50.6423 19.5179L49.4903 20.5739C49.2129 20.8726 48.9356 21.1499 48.6583 21.4059C48.4023 21.6406 48.2423 21.8112 48.1783 21.9179C48.0716 22.1099 47.8583 22.2806 47.5383 22.4299C47.2396 22.5792 46.8449 22.7499 46.3543 22.9419ZM47.2183 19.8699C47.5809 19.6566 47.8903 19.4006 48.1463 19.1019C48.4236 18.8032 48.6903 18.4726 48.9463 18.1099C49.2023 17.7259 49.4796 17.3206 49.7783 16.8939C50.1409 16.4032 50.3969 16.0086 50.5463 15.7099C50.7169 15.4112 50.8449 15.0912 50.9303 14.7499C50.8449 14.5152 50.7276 14.2699 50.5783 14.0139C50.4289 13.7366 50.2796 13.5872 50.1303 13.5659C49.8316 13.5659 49.4689 13.7472 49.0423 14.1099C48.6369 14.4726 48.1889 14.9952 47.6983 15.6779C47.6129 15.7846 47.5063 15.9552 47.3783 16.1899C47.2503 16.4246 47.1223 16.6486 46.9943 16.8619C46.8876 17.0539 46.8129 17.1819 46.7703 17.2459C46.7063 17.3312 46.6103 17.5339 46.4823 17.8539C46.3756 18.1526 46.2796 18.4619 46.1943 18.7819C46.1089 19.0806 46.0663 19.2939 46.0663 19.4219C46.0663 19.5499 46.0769 19.6886 46.0983 19.8379C46.1409 19.9872 46.2476 20.0832 46.4183 20.1259C46.5889 20.1686 46.8556 20.0832 47.2183 19.8699ZM59.9393 23.5819C59.2566 23.5819 58.6273 23.4326 58.0513 23.1339C57.4966 22.8139 57.0486 22.4299 56.7073 21.9819C56.3659 21.5126 56.1953 21.0646 56.1953 20.6379C56.1953 20.4459 56.2273 20.3072 56.2913 20.2219C56.3766 20.1366 56.4939 20.0939 56.6433 20.0939C56.7499 20.1152 56.8779 20.1686 57.0273 20.2539C57.1766 20.3392 57.3259 20.4352 57.4753 20.5419C57.8166 20.7766 58.1899 20.9259 58.5953 20.9899C59.0006 21.0539 59.3633 21.0326 59.6833 20.9259C60.0033 20.7979 60.1846 20.6059 60.2273 20.3499C60.2273 20.2646 60.1846 20.0832 60.0993 19.8059C60.0139 19.5286 59.9073 19.2619 59.7793 19.0059C59.2459 18.2166 58.9153 17.4699 58.7873 16.7659C58.6593 16.0406 58.5739 15.3152 58.5313 14.5899C58.5313 14.2912 58.6699 13.9606 58.9473 13.5979C59.2246 13.2139 59.5659 12.8406 59.9713 12.4779C60.4193 12.0939 60.9099 11.7312 61.4433 11.3899C61.9979 11.0486 62.5419 10.7606 63.0753 10.5259C63.6086 10.2912 64.0566 10.1526 64.4193 10.1099C64.8033 10.1099 65.2086 10.1312 65.6353 10.1739C66.0833 10.1952 66.3819 10.2699 66.5313 10.3979C66.8299 10.6326 67.1073 11.0166 67.3633 11.5499C67.6193 12.0832 67.7473 12.5312 67.7473 12.8939C67.7473 13.0646 67.6513 13.2779 67.4593 13.5339C67.2886 13.7686 67.1286 14.0352 66.9793 14.3339C66.8939 14.4832 66.8193 14.6432 66.7553 14.8139C66.6913 14.9846 66.6166 15.1552 66.5313 15.3259C66.4033 15.6246 66.1686 15.7526 65.8273 15.7099C65.5073 15.6459 65.2086 15.4752 64.9313 15.1979C64.6539 14.8992 64.5153 14.5579 64.5153 14.1739C64.5153 13.8539 64.6113 13.5766 64.8033 13.3419C64.9953 13.1072 65.0913 12.9472 65.0913 12.8619C65.0913 12.8192 65.0699 12.7872 65.0273 12.7659C64.9846 12.7446 64.9099 12.7339 64.8033 12.7339C64.6539 12.7339 64.4086 12.7979 64.0673 12.9259C63.7473 13.0326 63.4059 13.1926 63.0433 13.4059C62.6806 13.6192 62.3499 13.8752 62.0513 14.1739C61.8379 14.4086 61.6566 14.6646 61.5073 14.9419C61.3793 15.1979 61.3153 15.4752 61.3153 15.7739C61.3153 16.0726 61.3686 16.4246 61.4753 16.8299C61.6033 17.2139 61.7419 17.5339 61.8913 17.7899C61.9339 17.8326 61.9979 17.9499 62.0833 18.1419C62.1899 18.3126 62.3073 18.5259 62.4353 18.7819C63.2246 20.4032 63.3526 21.6086 62.8193 22.3979C62.3073 23.1872 61.3473 23.5819 59.9393 23.5819ZM71.3948 25.3099C70.3494 25.2886 69.6774 24.9899 69.3788 24.4139C69.1014 23.8592 69.0268 23.1552 69.1548 22.3019C69.2828 21.8966 69.3574 21.5339 69.3788 21.2139C69.4214 20.8726 69.5174 20.6592 69.6668 20.5739C69.6668 20.5739 69.6774 20.5419 69.6988 20.4779C69.7414 20.4139 69.7308 20.3499 69.6668 20.2859C69.6668 20.0086 69.7628 19.6246 69.9548 19.1339C69.9974 19.0059 70.0508 18.8566 70.1148 18.6859C70.2001 18.4939 70.2428 18.3979 70.2428 18.3979C70.1361 18.2272 70.1361 18.0886 70.2428 17.9819C70.3494 17.8752 70.4561 17.7792 70.5628 17.6939C70.6908 17.5872 70.7014 17.4699 70.5948 17.3419C70.5521 17.2566 70.6054 17.0646 70.7548 16.7659C70.9041 16.4459 71.0748 16.1152 71.2668 15.7739C71.4588 15.4326 71.5868 15.1659 71.6508 14.9739C71.6508 14.9312 71.7041 14.7819 71.8108 14.5259C71.9174 14.2699 72.0454 13.9712 72.1948 13.6299C72.3441 13.2886 72.4828 12.9792 72.6108 12.7019C72.7601 12.4246 72.8561 12.2432 72.8988 12.1579C73.1121 12.0512 73.0268 11.9766 72.6428 11.9339C72.2588 11.8912 71.8534 11.8806 71.4268 11.9019C70.7654 11.8806 70.2321 11.8486 69.8268 11.8059C69.4428 11.7632 69.1228 11.6672 68.8668 11.5179C68.6108 11.2192 68.5788 10.8672 68.7708 10.4619C68.9628 10.0352 69.2721 9.81123 69.6988 9.78989C69.9761 9.76856 70.1894 9.75789 70.3388 9.75789C70.5094 9.75789 70.7228 9.74723 70.9788 9.72589C71.2561 9.68323 71.6828 9.62989 72.2588 9.56589L73.8908 9.43789L73.9868 8.89389C74.1574 8.61656 74.2748 8.43523 74.3388 8.34989C74.4028 8.26456 74.4454 8.17922 74.4668 8.09389C74.4881 7.98723 74.5201 7.80589 74.5628 7.54989C74.5628 7.54989 74.6588 7.37922 74.8508 7.03789C75.0428 6.67523 75.1601 6.30189 75.2028 5.91789C75.4588 5.49122 75.6828 5.10722 75.8748 4.76589C76.0668 4.40322 76.1841 4.17922 76.2268 4.09389C76.5894 3.56056 76.9414 3.27256 77.2828 3.22989C77.6454 3.18722 77.9868 3.27256 78.3068 3.48589C78.4988 3.59256 78.6801 3.73122 78.8508 3.90189C79.0214 4.05122 79.1281 4.25389 79.1708 4.50989C79.2134 4.74456 79.1174 5.05389 78.8828 5.43789C78.8401 5.52322 78.7761 5.68322 78.6908 5.91789C78.6054 6.13123 78.5414 6.31256 78.4988 6.46189C78.3708 6.61123 78.2108 6.85656 78.0188 7.19789C77.8481 7.51789 77.7308 7.84856 77.6668 8.18989C77.4961 8.55256 77.3894 8.77656 77.3468 8.86189C77.3041 8.94723 77.2401 8.98989 77.1548 8.98989C77.1974 9.20323 77.3254 9.30989 77.5388 9.30989C77.7521 9.28856 78.1041 9.26723 78.5948 9.24589C79.0001 9.20322 79.2774 9.16056 79.4268 9.11789C79.5974 9.05389 79.7894 9.07522 80.0028 9.18189C80.1094 9.33123 80.1628 9.55523 80.1628 9.85389C80.1841 10.1312 80.1521 10.4086 80.0668 10.6859C79.9814 10.9419 79.8641 11.1019 79.7148 11.1659C79.6081 11.1659 79.3841 11.2299 79.0428 11.3579C78.7228 11.4646 78.3174 11.5286 77.8268 11.5499L76.1308 11.7099L75.5868 12.7979C75.4374 13.0752 75.3094 13.3312 75.2028 13.5659C75.0961 13.7792 75.0214 13.9072 74.9788 13.9499C74.9788 14.0779 74.9041 14.2699 74.7548 14.5259C74.6268 14.7819 74.4881 15.0592 74.3388 15.3579C74.2108 15.7206 74.0614 16.0512 73.8908 16.3499C73.7414 16.6486 73.6667 16.7979 73.6667 16.7979C73.5814 16.7979 73.5388 16.8619 73.5388 16.9899C73.6454 17.2459 73.6134 17.4379 73.4427 17.5659C73.3361 17.6299 73.2401 17.7259 73.1548 17.8539C73.0908 17.9606 73.0588 18.0139 73.0588 18.0139C73.1441 18.0992 73.1548 18.2059 73.0908 18.3339C73.0481 18.4619 72.9841 18.6006 72.8988 18.7499C72.8988 18.9206 72.8454 19.1659 72.7388 19.4859C72.6534 19.8059 72.5574 20.1046 72.4508 20.3819C72.4721 20.7659 72.4934 21.0112 72.5148 21.1179C72.5361 21.2246 72.5894 21.2672 72.6748 21.2459C72.7814 21.2672 72.9308 21.2672 73.1228 21.2459C73.3148 21.2246 73.4534 21.2139 73.5388 21.2139C73.8588 21.0646 73.7094 21.8112 73.0908 23.4539C72.7494 23.9872 72.4081 24.4246 72.0668 24.7659C71.7254 25.1286 71.5014 25.3099 71.3948 25.3099ZM79.9205 22.5259C79.7285 22.3766 79.5152 22.1846 79.2805 21.9499C79.0672 21.7152 78.9925 21.3846 79.0565 20.9579C79.1205 20.3606 79.2058 19.8379 79.3125 19.3899C79.4192 18.9206 79.5472 18.3872 79.6965 17.7899C79.7392 17.5339 79.8458 17.0966 80.0165 16.4779C80.2085 15.8592 80.4325 15.1872 80.6885 14.4619C80.9445 13.7366 81.2112 13.0539 81.4885 12.4139C81.7658 11.7526 82.0112 11.2619 82.2245 10.9419C82.4592 10.7286 82.8005 10.6219 83.2485 10.6219C83.7178 10.6219 84.0378 10.7072 84.2085 10.8779C84.4432 11.0699 84.5178 11.4112 84.4325 11.9019C84.3472 12.3712 84.0485 13.1072 83.5365 14.1099C83.4298 14.3659 83.2912 14.6432 83.1205 14.9419C82.9712 15.2192 82.8645 15.4539 82.8005 15.6459C82.7365 15.8166 82.7578 15.8912 82.8645 15.8699C82.9925 15.6352 83.2272 15.3686 83.5685 15.0699C83.9098 14.7499 84.2725 14.4406 84.6565 14.1419C85.0405 13.8432 85.4032 13.5766 85.7445 13.3419C86.0858 13.1072 86.3205 12.9579 86.4485 12.8939C86.6192 12.7872 86.8112 12.7019 87.0245 12.6379C87.2592 12.5526 87.4192 12.4886 87.5045 12.4459C87.9952 12.2112 88.5285 12.1259 89.1045 12.1899C89.7018 12.2326 90.0645 12.4139 90.1925 12.7339C90.2138 12.9046 90.2778 13.0326 90.3845 13.1179C90.5125 13.2032 90.5765 13.2459 90.5765 13.2459C90.6618 13.2459 90.7045 13.2779 90.7045 13.3419C90.7258 13.4059 90.7365 13.4379 90.7365 13.4379C90.7365 13.5872 90.5872 13.8006 90.2885 14.0779C90.0112 14.3552 89.7018 14.5046 89.3605 14.5259C89.0832 14.5472 88.8378 14.6006 88.6245 14.6859C88.4112 14.7712 88.1552 14.8779 87.8565 15.0059C87.0458 15.4752 86.3098 15.8912 85.6485 16.2539C85.0085 16.6166 84.3472 17.1712 83.6645 17.9179C83.5152 18.0886 83.3552 18.2486 83.1845 18.3979C83.0138 18.5472 82.8432 18.7606 82.6725 19.0379C82.5658 19.1446 82.4592 19.3792 82.3525 19.7419C82.2458 20.1046 82.1498 20.4566 82.0645 20.7979C82.0005 21.1179 81.9685 21.3099 81.9685 21.3739C81.9685 21.3739 81.9365 21.4806 81.8725 21.6939C81.8085 21.8859 81.7018 22.0779 81.5525 22.2699C81.2965 22.6112 81.0405 22.8246 80.7845 22.9099C80.5498 22.9952 80.2618 22.8672 79.9205 22.5259ZM93.2877 23.1019C92.4557 22.7606 91.8797 22.2059 91.5597 21.4379C91.2397 20.6699 91.1544 19.6459 91.3037 18.3659C91.3464 17.7046 91.3251 17.2672 91.2397 17.0539C91.1544 16.8192 90.9944 16.5952 90.7597 16.3819C90.6957 16.2966 90.5464 16.1579 90.3117 15.9659C90.0771 15.7526 89.9704 15.5926 89.9917 15.4859C89.9704 15.3366 90.0024 15.1552 90.0877 14.9419C90.1731 14.7072 90.2477 14.5792 90.3117 14.5579C90.4611 14.4939 90.6104 14.4192 90.7597 14.3339C90.9304 14.2486 91.0584 14.2272 91.1437 14.2699C91.2291 14.2699 91.3571 14.3232 91.5277 14.4299C91.7197 14.5366 91.8157 14.6326 91.8157 14.7179C91.9011 14.8672 92.0291 14.8032 92.1997 14.5259C92.3917 14.2486 92.5944 13.8966 92.8077 13.4699C93.0211 13.1286 93.2877 12.8086 93.6077 12.5099C93.9277 12.2112 94.2477 11.9446 94.5677 11.7099C94.9091 11.4539 95.1971 11.2619 95.4317 11.1339C95.5384 11.0912 95.7411 11.0272 96.0397 10.9419C96.3597 10.8566 96.6904 10.7926 97.0317 10.7499C97.3731 10.6859 97.6291 10.6646 97.7997 10.6859C98.1837 10.7072 98.5891 10.8672 99.0157 11.1659C99.4424 11.4646 99.7731 11.7419 100.008 11.9979C100.285 12.1899 100.466 12.4886 100.552 12.8939C100.658 13.2779 100.701 13.6832 100.68 14.1099C100.658 14.5366 100.573 14.8992 100.424 15.1979C100.36 15.4112 100.136 15.7099 99.7517 16.0939C99.3677 16.4779 98.9411 16.8512 98.4717 17.2139C98.0237 17.5552 97.6397 17.7899 97.3197 17.9179C97.0424 17.9819 96.7117 18.0352 96.3277 18.0779C95.9437 18.0992 95.5811 18.0992 95.2397 18.0779C94.9197 18.0352 94.6957 17.9819 94.5677 17.9179C94.4184 17.8326 94.2904 17.8646 94.1837 18.0139C94.0984 18.1419 94.0237 18.5046 93.9597 19.1019C93.9384 19.3366 93.9384 19.5392 93.9597 19.7099C94.0024 19.8806 94.0451 20.0086 94.0877 20.0939C94.2371 20.3499 94.3864 20.5419 94.5357 20.6699C94.6851 20.7766 94.9624 20.8086 95.3677 20.7659C95.7731 20.7232 96.1784 20.4779 96.5837 20.0299C97.0104 19.5606 97.3944 19.1872 97.7357 18.9099C97.8211 18.7606 98.0024 18.6646 98.2797 18.6219C98.5784 18.5579 98.9304 18.5792 99.3357 18.6859C99.5704 18.8352 99.6771 19.0699 99.6557 19.3899C99.6557 19.7099 99.4851 20.1792 99.1437 20.7979C99.0797 20.9472 98.8984 21.1712 98.5997 21.4699C98.3224 21.7472 98.0131 22.0352 97.6717 22.3339C97.3517 22.6112 97.0851 22.8139 96.8717 22.9419C96.2317 23.2832 95.6024 23.4432 94.9837 23.4219C94.3651 23.4006 93.7997 23.2939 93.2877 23.1019ZM95.6557 15.9019C95.9757 15.8166 96.2424 15.7312 96.4557 15.6459C96.6904 15.5606 96.9144 15.4219 97.1277 15.2299C97.3411 15.0379 97.5864 14.7499 97.8637 14.3659C97.9491 14.1312 97.9917 13.9286 97.9917 13.7579C98.0131 13.5872 98.0024 13.4806 97.9597 13.4379C97.7891 13.2672 97.5971 13.2139 97.3837 13.2779C97.1917 13.3206 96.9784 13.4272 96.7437 13.5979C96.5944 13.6619 96.3811 13.8006 96.1037 14.0139C95.8477 14.2059 95.5917 14.4299 95.3357 14.6859C95.1011 14.9206 94.9091 15.1446 94.7597 15.3579C94.6317 15.5499 94.6104 15.6672 94.6957 15.7099C94.6531 15.7952 94.7704 15.8486 95.0477 15.8699C95.3464 15.8912 95.5491 15.9019 95.6557 15.9019ZM104.371 17.8859C104.243 17.8859 104.083 17.8859 103.891 17.8859C103.699 17.8646 103.486 17.8112 103.251 17.7259C102.931 17.7259 102.675 17.6619 102.483 17.5339C102.313 17.3846 102.185 17.2352 102.099 17.0859C101.865 16.7659 101.875 16.5206 102.131 16.3499C102.409 16.1579 102.942 16.0192 103.731 15.9339C104.457 15.7632 105.171 15.6459 105.875 15.5819C106.579 15.5179 107.358 15.4859 108.211 15.4859C108.766 15.4859 109.214 15.5392 109.555 15.6459C109.918 15.7526 110.217 15.9232 110.451 16.1579C110.771 16.4779 110.846 16.8192 110.675 17.1819C110.505 17.5232 110.174 17.6512 109.683 17.5659C109.534 17.5872 109.214 17.6086 108.723 17.6299C108.254 17.6512 107.827 17.6832 107.443 17.7259C107.209 17.7472 106.793 17.7792 106.195 17.8219C105.598 17.8646 104.99 17.8859 104.371 17.8859ZM114.565 23.5819C113.839 23.2832 113.306 22.9739 112.965 22.6539C112.645 22.3126 112.517 22.0139 112.581 21.7579C112.623 21.6299 112.698 21.5126 112.805 21.4059C112.911 21.2992 113.146 21.2566 113.509 21.2779C113.893 21.2779 114.479 21.3739 115.269 21.5659C115.503 21.5659 115.738 21.5552 115.973 21.5339C116.207 21.5126 116.421 21.4806 116.613 21.4379C116.826 21.3952 116.997 21.3419 117.125 21.2779C117.231 21.2352 117.263 21.1819 117.221 21.1179C117.178 21.0326 117.103 20.9472 116.997 20.8619C116.911 20.7552 116.815 20.6912 116.709 20.6699C116.602 20.6272 116.506 20.6059 116.421 20.6059C116.378 20.4992 116.282 20.3926 116.133 20.2859C116.005 20.1792 115.845 20.0619 115.653 19.9339C115.183 19.5499 114.757 19.2086 114.373 18.9099C113.989 18.6112 113.839 18.3872 113.925 18.2379C113.925 18.1526 113.925 18.1099 113.925 18.1099C113.925 18.0886 113.925 18.0779 113.925 18.0779C113.775 18.0779 113.637 17.8752 113.509 17.4699C113.381 17.0432 113.317 16.6592 113.317 16.3179C113.317 15.8912 113.402 15.4646 113.573 15.0379C113.765 14.6112 113.999 14.2059 114.277 13.8219C114.575 13.4379 114.874 13.0966 115.173 12.7979C115.578 12.4139 116.005 12.0406 116.453 11.6779C116.922 11.2939 117.423 10.9526 117.957 10.6539C118.511 10.3552 119.119 10.1206 119.781 9.94989C120.079 9.88589 120.421 9.85389 120.805 9.85389C121.189 9.85389 121.466 9.90723 121.637 10.0139C121.807 9.90723 122.021 9.93923 122.277 10.1099C122.533 10.2592 122.789 10.4726 123.045 10.7499C123.301 11.0272 123.493 11.3046 123.621 11.5819C123.621 11.8379 123.61 12.1579 123.589 12.5419C123.589 12.9046 123.567 13.2246 123.525 13.5019C123.482 13.7792 123.386 13.9179 123.237 13.9179C123.237 13.9179 123.205 13.9286 123.141 13.9499C123.098 13.9499 123.077 14.0032 123.077 14.1099C123.077 14.3232 122.917 14.5686 122.597 14.8459C122.191 15.1232 121.807 15.3472 121.445 15.5179C121.082 15.6886 120.805 15.6992 120.613 15.5499C120.485 15.4646 120.367 15.3792 120.261 15.2939C120.154 15.2086 120.058 15.1019 119.973 14.9739C119.973 14.9739 119.941 14.9312 119.877 14.8459C119.834 14.7392 119.813 14.6432 119.813 14.5579C119.813 14.4726 119.845 14.3979 119.909 14.3339C119.973 14.2486 120.005 14.2059 120.005 14.2059C120.303 13.9286 120.527 13.6726 120.677 13.4379C120.847 13.2032 120.965 13.0006 121.029 12.8299C121.093 12.6379 121.125 12.4886 121.125 12.3819C121.125 12.2539 121.093 12.1792 121.029 12.1579C120.986 12.1152 120.879 12.0939 120.709 12.0939C120.602 12.0939 120.367 12.1792 120.005 12.3499C119.663 12.5206 119.301 12.7339 118.917 12.9899C118.533 13.2246 118.234 13.4379 118.021 13.6299C117.935 13.7792 117.871 13.8752 117.829 13.9179C117.807 13.9606 117.754 13.9819 117.669 13.9819C117.669 13.8966 117.615 13.9072 117.509 14.0139C117.402 14.1206 117.274 14.2699 117.125 14.4619C116.975 14.6539 116.826 14.8566 116.677 15.0699C116.527 15.2832 116.41 15.4539 116.325 15.5819C116.303 15.7739 116.25 15.9552 116.165 16.1259C116.101 16.2752 116.079 16.4352 116.101 16.6059C116.122 16.8192 116.229 17.0219 116.421 17.2139C116.613 17.4059 116.89 17.6512 117.253 17.9499C117.999 18.5046 118.554 18.9419 118.917 19.2619C119.301 19.5819 119.567 19.8379 119.717 20.0299C119.866 20.2219 119.962 20.4139 120.005 20.6059C120.367 21.2672 120.41 21.8432 120.133 22.3339C119.855 22.8032 119.429 23.1659 118.853 23.4219C118.639 23.5286 118.266 23.6246 117.733 23.7099C117.199 23.8166 116.634 23.8592 116.037 23.8379C115.461 23.8379 114.97 23.7526 114.565 23.5819ZM130.532 22.7499C129.892 23.1126 129.21 23.3259 128.484 23.3899C127.78 23.4326 127.119 23.3366 126.5 23.1019C125.882 22.8459 125.38 22.4726 124.996 21.9819C124.783 21.7046 124.58 21.2672 124.388 20.6699C124.196 20.0512 124.164 19.2192 124.292 18.1739C124.42 17.1926 124.719 16.2006 125.188 15.1979C125.679 14.1952 126.276 13.3099 126.98 12.5419C127.684 11.7739 128.452 11.2512 129.284 10.9739C129.583 10.8672 129.882 10.7926 130.18 10.7499C130.5 10.6859 130.916 10.6752 131.428 10.7179C131.919 10.7819 132.356 10.9099 132.74 11.1019C133.124 11.2726 133.402 11.4646 133.572 11.6779C133.914 12.0192 134.138 12.3499 134.244 12.6699C134.351 12.9899 134.394 13.2992 134.372 13.5979C134.266 14.2806 133.956 15.0166 133.444 15.8059C132.954 16.5952 132.26 17.1819 131.364 17.5659C131.002 17.7152 130.575 17.8112 130.084 17.8539C129.594 17.8966 128.922 17.8326 128.068 17.6619C127.556 17.5552 127.215 17.6086 127.044 17.8219C126.895 18.0352 126.831 18.4512 126.852 19.0699C126.895 19.4539 126.98 19.7952 127.108 20.0939C127.258 20.3712 127.524 20.5632 127.908 20.6699C128.399 20.7552 128.751 20.7659 128.964 20.7019C129.178 20.6166 129.444 20.4992 129.764 20.3499C129.935 20.2432 130.095 20.1259 130.244 19.9979C130.415 19.8699 130.575 19.7419 130.724 19.6139C130.895 19.4859 131.034 19.3899 131.14 19.3259C131.247 19.2406 131.354 19.1872 131.46 19.1659C131.567 19.1446 131.674 19.1339 131.78 19.1339C132.015 19.1552 132.239 19.2832 132.452 19.5179C132.666 19.7526 132.804 19.9766 132.868 20.1899C132.868 20.3606 132.762 20.6059 132.548 20.9259C132.335 21.2246 132.047 21.5446 131.684 21.8859C131.343 22.2059 130.959 22.4939 130.532 22.7499ZM130.116 15.6139C130.266 15.5499 130.479 15.4006 130.756 15.1659C131.055 14.9312 131.322 14.6859 131.556 14.4299C131.791 14.1526 131.908 13.9392 131.908 13.7899C131.908 13.5552 131.748 13.3526 131.428 13.1819C131.13 13.0112 130.735 12.9792 130.244 13.0859C130.074 13.1286 129.871 13.2459 129.636 13.4379C129.402 13.6299 129.167 13.8539 128.932 14.1099C128.698 14.3446 128.495 14.5792 128.324 14.8139C128.154 15.0272 128.036 15.1979 127.972 15.3259C128.058 15.4326 128.228 15.5179 128.484 15.5819C128.74 15.6459 129.018 15.6779 129.316 15.6779C129.636 15.6779 129.903 15.6566 130.116 15.6139Z" fill="#0B3052"/>
</svg>
