<svg width="114" height="114" viewBox="0 0 114 114" fill="none" xmlns="http://www.w3.org/2000/svg">
<path d="M81.5938 77.4312H54.5405C51.7918 77.4312 49.4771 79.7013 49.4771 82.3971V108.929C49.4771 111.625 51.7918 113.895 54.5405 113.895H81.5938C84.3425 113.895 86.6573 111.625 86.6573 108.929V82.3971C86.6573 79.7013 84.3425 77.4312 81.5938 77.4312ZM82.3172 108.788C82.3172 109.213 82.0278 109.497 81.5938 109.497H54.5405C54.1065 109.497 53.8172 109.213 53.8172 108.788V82.3971C53.8172 81.9715 54.1065 81.6877 54.5405 81.6877H81.5938C82.0278 81.6877 82.3172 81.9715 82.3172 82.3971V108.788Z" fill="#2C3549"/>
<path d="M109.081 53.1688H81.8831C79.1344 53.1688 76.9644 55.2971 76.9644 57.9929V71.4719C76.9644 72.607 77.9771 73.6002 79.1344 73.6002C80.1471 73.6002 81.0151 72.8908 81.1598 72.0394H85.4999C86.2232 76.8635 90.4187 80.5525 95.4821 80.5525C100.546 80.5525 104.741 76.8635 105.464 72.0394H109.66V84.6672C109.66 84.9509 109.37 85.2347 109.081 85.2347H93.7461C92.5887 85.2347 91.576 86.2279 91.576 87.363C91.576 88.498 92.5887 89.4912 93.7461 89.4912H109.081C111.83 89.4912 114 87.363 114 84.6672V58.1348C114 55.439 111.685 53.1688 109.081 53.1688ZM95.4821 77.8567C91.576 77.8567 88.2486 74.7353 88.2486 70.7625C88.2486 66.7897 91.4314 63.6683 95.4821 63.6683C99.5329 63.6683 102.716 66.7897 102.716 70.7625C102.716 74.7353 99.3882 77.8567 95.4821 77.8567ZM105.464 69.3436C104.741 64.5196 100.546 60.8306 95.4821 60.8306C90.4187 60.8306 86.2232 64.5196 85.4999 69.3436H81.3045V58.1348C81.3045 57.851 81.5938 57.5672 81.8831 57.5672H109.081C109.37 57.5672 109.66 57.851 109.66 58.1348V69.3436H105.464Z" fill="#2C3549"/>
<path d="M64.9571 45.6489C60.3277 45.6489 56.1322 42.6693 54.8302 38.2709C54.3962 40.2573 53.6728 41.9599 52.6602 43.5207C55.4089 47.3515 59.8937 49.9054 64.9571 49.9054C70.0206 49.9054 74.5053 47.3515 77.2541 43.5207C76.2414 41.818 75.518 39.8317 75.2287 37.8453C74.0713 42.3856 69.8759 45.6489 64.9571 45.6489Z" fill="#2C3549"/>
<path d="M55.2642 3.93501V6.06327H71.3225L71.0332 4.21878C70.8885 3.36747 71.1779 2.65805 71.7565 1.94862C71.9012 1.80674 71.9012 1.80674 72.0459 1.66486H54.2515C54.8301 2.23239 55.2642 3.0837 55.2642 3.93501Z" fill="#2C3549"/>
<path d="M40.9416 99.5651H14.033C12.4416 99.5651 10.9949 98.2881 10.9949 96.5855V49.4799C12.1523 49.7637 13.165 49.9056 14.3223 49.9056C17.7944 49.9056 21.2665 48.6286 23.8706 46.3584C24.8832 45.5071 25.6066 44.5139 26.3299 43.5208C25.1726 41.8181 24.4492 39.9736 24.1599 37.8454C23.7259 39.8318 22.5685 41.6763 20.9772 43.0951C19.0964 44.6558 16.7817 45.649 14.3223 45.649C12.4416 45.649 10.7056 45.2234 9.25888 44.2302C6.22081 42.5276 4.3401 39.2642 4.3401 35.7171V35.1496L12.5863 7.34023C12.8756 6.48893 13.599 5.92139 14.6117 5.92139H27.632L27.9213 3.50935C28.066 2.79993 28.3553 2.23239 28.934 1.66486H14.7563C11.8629 1.66486 9.40355 3.50935 8.53553 6.20516L0.144669 34.2983C0.144669 34.4402 0 34.7239 0 34.8658V35.7171C0 40.1155 2.02538 44.0883 5.49746 46.7841C5.35279 47.0679 5.35279 47.3516 5.35279 47.7773V96.5855C5.35279 101.268 9.25888 105.24 14.1777 105.24H40.9416C42.533 105.24 43.835 103.964 43.835 102.403C43.835 100.842 42.533 99.5651 40.9416 99.5651Z" fill="#2C3549"/>
<path d="M105.32 34.1563L96.9289 6.06322C96.0609 3.08365 93.1675 0.955383 90.1294 0.955383H73.9264C73.203 0.955383 72.6243 1.23915 72.0457 1.66481C71.901 1.80669 71.901 1.80669 71.7563 1.94857C71.1776 2.51611 70.8883 3.36742 71.033 4.21872L71.3223 6.06322L74.7944 34.2982C74.7944 34.2982 74.7944 34.2982 74.7944 34.4401L75.2284 37.8453C75.2284 37.9872 75.2284 37.9872 75.2284 38.1291C75.5177 40.1155 76.2411 42.1019 77.2538 43.8045C77.9771 45.0814 78.9898 46.2165 80.1472 47.2097C82.8959 49.6217 86.5127 50.8987 90.1294 50.8987C92.8781 50.8987 95.4822 50.1893 97.7969 48.7704C102.426 46.0746 105.175 41.2506 105.175 36.0008V35.1495C105.32 34.582 105.32 34.4401 105.32 34.1563ZM99.533 35.8589C99.533 39.1223 97.7969 42.1019 94.9035 43.8045C93.4568 44.6558 91.8654 45.0814 90.1294 45.0814C87.8147 45.0814 85.6446 44.2301 83.9086 42.8113C82.1726 41.3924 81.1599 39.2642 80.8705 36.994L80.4365 33.7307L77.1091 6.91453H89.9847C90.5634 6.91453 91.1421 7.34018 91.2868 7.90772L99.533 35.5752V35.8589Z" fill="#06ADEF"/>
<path d="M55.2639 35.4333V6.06324V3.93498C55.2639 3.08367 54.8299 2.37425 54.2512 1.80671C53.6725 1.38106 53.0938 1.09729 52.3705 1.09729H30.8146C30.0913 1.09729 29.3679 1.38106 28.9339 1.80671C28.3552 2.23237 28.0659 2.94179 27.9212 3.65121L27.6319 6.06324L24.1598 33.5888C24.0151 34.1564 24.0151 34.8658 24.0151 35.4333C24.0151 36.2846 24.1598 37.1359 24.3045 37.9872C24.5938 39.9736 25.4618 41.96 26.4745 43.6626C29.2233 47.9191 34.142 50.7568 39.6395 50.7568C45.137 50.7568 50.0557 47.9191 52.8045 43.6626C53.8172 42.1019 54.5405 40.2574 54.9745 38.4129C55.1192 37.4197 55.2639 36.4265 55.2639 35.4333ZM49.4771 35.4333C49.4771 40.683 45.137 45.0815 39.6395 45.0815C34.2867 45.0815 29.8019 40.8249 29.8019 35.4333C29.8019 35.0077 29.8019 34.582 29.9466 34.2982L33.4187 6.77267H49.4771V35.4333Z" fill="#06ADEF"/>
<path d="M47.3072 68.7761H33.1295C32.6955 68.7761 32.4062 69.0599 32.4062 69.4855V73.7421C32.4062 74.1677 32.6955 74.4515 33.1295 74.4515H41.8097C40.6524 78.1405 37.0356 80.6944 33.1295 80.6944C28.0661 80.6944 24.0153 76.7216 24.0153 71.7557C24.0153 66.7897 28.0661 62.817 33.1295 62.817C35.5889 62.817 37.9036 63.8102 39.6397 65.5128C39.929 65.7966 40.363 65.7966 40.6524 65.5128L43.6904 62.5332C43.8351 62.3913 43.8351 62.2494 43.8351 61.9657C43.8351 61.6819 43.6904 61.54 43.6904 61.3981C40.9417 58.7023 37.1803 57.1416 33.1295 57.1416C24.8833 57.1416 18.2285 63.6683 18.2285 71.7557C18.2285 79.8431 24.8833 86.3698 33.1295 86.3698C41.3757 86.3698 48.0305 79.8431 48.0305 71.7557V69.4855C48.0305 69.2018 47.7412 68.7761 47.3072 68.7761Z" fill="#06ADEF"/>
</svg>
