<svg width="135" height="170" viewBox="0 0 135 170" fill="none" xmlns="http://www.w3.org/2000/svg">
<path d="M89.91 62.8815L116.91 71.8241C118.395 72.3302 118.935 74.8611 117.585 76.0422L112.05 81.6102C111.105 82.6226 111.105 84.3098 111.915 85.3222L121.095 96.6269C121.905 97.6393 121.905 99.1578 121.095 100.17L119.34 102.364L117.585 104.557C116.775 105.569 115.56 105.569 114.75 104.557L105.57 93.2524C104.76 92.24 103.41 92.4088 102.6 93.4211L98.28 100.508C97.335 102.026 95.31 101.52 94.905 99.664L87.345 66.0873C87.075 64.0626 88.425 62.3753 89.91 62.8815Z" stroke="#06ADEF" stroke-width="4" stroke-miterlimit="10" stroke-linecap="round" stroke-linejoin="round"/>
<path d="M56.5649 57.3135H80.0549" stroke="#253246" stroke-width="2" stroke-miterlimit="10" stroke-linecap="round" stroke-linejoin="round"/>
<path d="M66.825 78.5731H79.245" stroke="#06ADEF" stroke-width="4" stroke-miterlimit="10" stroke-linecap="round" stroke-linejoin="round"/>
<path d="M80.0549 66.2561H56.5649" stroke="#253246" stroke-width="2" stroke-miterlimit="10" stroke-linecap="round" stroke-linejoin="round"/>
<path d="M109.08 110.463C109.08 114.175 106.65 117.212 103.68 117.212H18.63C15.66 117.212 13.23 114.175 13.23 110.463V40.1034H109.08L109.215 59.1695" stroke="#253246" stroke-width="4" stroke-miterlimit="10" stroke-linecap="round" stroke-linejoin="round"/>
<path d="M109.08 41.1157V34.8728C109.08 31.3296 106.785 28.2925 103.815 28.2925H18.495C15.66 28.2925 13.23 31.1608 13.23 34.8728V41.1157" stroke="#253246" stroke-width="4" stroke-miterlimit="10" stroke-linecap="round" stroke-linejoin="round"/>
<path d="M44.2799 85.6597C43.3349 90.2153 45.7649 92.5775 53.3249 93.4211C60.3449 94.2647 58.3199 106.751 58.3199 106.751H39.6899H39.8249H21.1949C21.1949 106.751 19.1699 94.2647 26.1899 93.4211C33.7499 92.5775 36.1799 90.2153 35.2349 85.6597" stroke="#253246" stroke-width="2" stroke-miterlimit="10" stroke-linecap="round" stroke-linejoin="round"/>
<path d="M33.7498 91.0589C36.3148 93.9273 40.4998 96.1207 46.3048 91.3964" stroke="#253246" stroke-width="2" stroke-miterlimit="10" stroke-linecap="round" stroke-linejoin="round"/>
<path d="M30.9148 67.0997C30.9148 71.6553 30.9148 74.0175 30.9148 76.5484C30.9148 79.0793 31.9948 87.0095 39.6898 86.8408C47.3848 86.672 48.4648 79.0793 48.4648 76.3797C48.4648 73.68 48.4648 66.931 48.4648 66.931C44.8198 69.1244 36.8548 70.3055 30.5098 59.1695" stroke="#253246" stroke-width="2" stroke-miterlimit="10" stroke-linecap="round" stroke-linejoin="round"/>
<path d="M50.8949 66.0873C49.6799 60.1819 47.2499 54.1077 39.9599 53.0954C35.7749 52.5892 32.3999 55.6263 30.5099 59.3383C29.0249 62.2066 28.6199 65.4124 29.2949 67.6059C31.8599 66.7622 34.1549 64.2313 34.1549 64.2313" stroke="#253246" stroke-width="2" stroke-miterlimit="10" stroke-linecap="round" stroke-linejoin="round"/>
<path d="M81.945 142.014H40.365C38.88 142.014 37.665 140.496 37.665 138.64C37.665 136.784 38.88 135.265 40.365 135.265H81.81C83.295 135.265 84.51 136.784 84.51 138.64C84.645 140.496 83.43 142.014 81.945 142.014Z" stroke="#253246" stroke-width="2" stroke-miterlimit="10" stroke-linecap="round" stroke-linejoin="round"/>
<path d="M74.655 135.265H47.655L50.355 117.212H71.955L74.655 135.265Z" stroke="#253246" stroke-width="2" stroke-miterlimit="10" stroke-linecap="round" stroke-linejoin="round"/>
</svg>
