<svg width="111" height="108" viewBox="0 0 111 108" fill="none" xmlns="http://www.w3.org/2000/svg">
<path d="M47.423 105.926H5.087C3.47 105.926 2 104.691 2 103.043V23.1422C2 22.7303 26.99 2 26.99 2H83.144C84.761 2 86.231 3.23558 86.231 4.88303V43.1861" stroke="#2C3549" stroke-width="3" stroke-miterlimit="10" stroke-linecap="round" stroke-linejoin="round"/>
<path d="M4.49902 22.3185L23.903 22.0439C25.667 22.0439 26.99 20.6711 26.99 19.1609C26.99 14.905 26.99 6.94236 26.99 2.68646" stroke="#2C3549" stroke-width="2" stroke-miterlimit="10" stroke-linecap="round" stroke-linejoin="round"/>
<path d="M43.748 36.8709H71.531" stroke="#06ADEF" stroke-width="4" stroke-miterlimit="10" stroke-linecap="round" stroke-linejoin="round"/>
<path d="M43.4541 57.1894H59.3301" stroke="#2C3549" stroke-width="2" stroke-miterlimit="10" stroke-linecap="round" stroke-linejoin="round"/>
<path d="M43.4541 80.3909H59.3301" stroke="#2C3549" stroke-width="2" stroke-miterlimit="10" stroke-linecap="round" stroke-linejoin="round"/>
<path d="M87.7578 82.7496C86.4348 87.6919 89.9628 90.1631 100.841 91.1241C111.131 91.9478 108.191 105.539 108.191 105.539H81.1428H81.4368H54.3888C54.3888 105.539 51.4488 92.0851 61.7388 91.1241C72.6168 90.1631 76.1448 87.6919 74.8218 82.7496" stroke="#06ADEF" stroke-width="4" stroke-miterlimit="10" stroke-linecap="round" stroke-linejoin="round"/>
<path d="M72.4697 88.653C76.2917 91.6733 82.3187 94.1445 90.6977 88.9276" stroke="#06ADEF" stroke-width="4" stroke-miterlimit="10" stroke-linecap="round" stroke-linejoin="round"/>
<path d="M68.5008 62.843C68.5008 67.7853 68.5008 70.3938 68.5008 73.1395C68.5008 75.8853 70.1178 84.5343 81.1428 84.2598C92.1678 84.1225 93.7848 75.8853 93.7848 73.0022C93.7848 70.1192 93.7848 62.843 93.7848 62.843C88.6398 65.1769 77.0268 66.4124 67.9128 54.4685" stroke="#06ADEF" stroke-width="4" stroke-miterlimit="10" stroke-linecap="round" stroke-linejoin="round"/>
<path d="M97.3128 61.7447C95.6958 55.4295 92.1678 48.8397 81.4368 47.7414C75.4098 47.1922 70.5588 50.4871 67.9128 54.4684C65.8548 57.4888 65.1198 61.0582 66.1488 63.3921C69.8238 62.4311 73.2048 59.6854 73.2048 59.6854" stroke="#06ADEF" stroke-width="4" stroke-miterlimit="10" stroke-linecap="round" stroke-linejoin="round"/>
<path d="M31.8412 26.7117C33.4582 26.7117 34.7812 27.9473 34.7812 29.4575V32.4778V40.715C34.7812 42.2252 33.4582 43.4607 31.8412 43.4607H19.7872C18.1702 43.4607 16.8472 42.2252 16.8472 40.715V32.0659" stroke="#06ADEF" stroke-width="4" stroke-miterlimit="10" stroke-linecap="round" stroke-linejoin="round"/>
<path d="M31.8412 65.9758H19.7872C18.1702 65.9758 16.8472 64.7402 16.8472 63.2301V51.9725C16.8472 50.4624 18.1702 49.2268 19.7872 49.2268H31.8412C33.4582 49.2268 34.7812 50.4624 34.7812 51.9725V63.2301C34.7812 64.7402 33.4582 65.9758 31.8412 65.9758Z" stroke="#2C3549" stroke-width="2" stroke-miterlimit="10"/>
<path d="M31.8412 88.6282H19.7872C18.1702 88.6282 16.8472 87.3926 16.8472 85.8825V74.6249C16.8472 73.1148 18.1702 71.8792 19.7872 71.8792H31.8412C33.4582 71.8792 34.7812 73.1148 34.7812 74.6249V85.8825C34.7812 87.3926 33.4582 88.6282 31.8412 88.6282Z" stroke="#2C3549" stroke-width="2" stroke-miterlimit="10"/>
<path d="M22.7271 34.9489C22.8741 35.0862 24.7851 36.8709 24.7851 36.8709L28.9011 33.1642" stroke="#06ADEF" stroke-width="2" stroke-miterlimit="10" stroke-linecap="round" stroke-linejoin="round"/>
<path d="M23.168 55.1301L28.46 60.2097" stroke="#2C3549" stroke-width="2" stroke-miterlimit="10" stroke-linecap="round" stroke-linejoin="round"/>
<path d="M23.168 60.2097L28.46 55.1301" stroke="#2C3549" stroke-width="2" stroke-miterlimit="10" stroke-linecap="round" stroke-linejoin="round"/>
<path d="M23.168 77.9197L28.46 82.8621" stroke="#2C3549" stroke-width="2" stroke-miterlimit="10" stroke-linecap="round" stroke-linejoin="round"/>
<path d="M23.168 82.8621L28.46 77.9197" stroke="#2C3549" stroke-width="2" stroke-miterlimit="10" stroke-linecap="round" stroke-linejoin="round"/>
</svg>
