<svg width="91" height="106" viewBox="0 0 91 106" fill="none" xmlns="http://www.w3.org/2000/svg">
<path d="M21.6699 52.9813H14.3301C13.0485 52.9813 12 51.8037 12 50.3645V42.1215C12 40.6822 13.0485 39.5047 14.3301 39.5047H21.6699C22.9515 39.5047 24 40.6822 24 42.1215V50.3645C24 51.8037 22.9515 52.9813 21.6699 52.9813Z" stroke="#EF0606" stroke-width="4" stroke-miterlimit="10" stroke-linecap="round" stroke-linejoin="round"/>
<path d="M38.8641 52.9813H32.1359C30.9612 52.9813 30 51.8037 30 50.3645V42.1215C30 40.6822 30.9612 39.5047 32.1359 39.5047H38.8641C40.0388 39.5047 41 40.6822 41 42.1215V50.3645C41 51.8037 40.0388 52.9813 38.8641 52.9813Z" stroke="#2D3547" stroke-width="2" stroke-miterlimit="10"/>
<path d="M22.0392 17.3645H15.9608C14.8824 17.3645 14 16.1573 14 14.6818V3.6827C14 2.20722 14.8824 1 15.9608 1H22.0392C23.1176 1 24 2.20722 24 3.6827V14.6818C24 16.1573 23.1176 17.3645 22.0392 17.3645Z" stroke="#2D3547" stroke-width="2" stroke-miterlimit="10"/>
<path d="M71.6471 17.3645H64.3529C63.0588 17.3645 62 16.1573 62 14.6818V3.6827C62 2.20722 63.0588 1 64.3529 1H71.6471C72.9412 1 74 2.20722 74 3.6827V14.6818C74 16.1573 72.9412 17.3645 71.6471 17.3645Z" stroke="#2D3547" stroke-width="2" stroke-miterlimit="10"/>
<path d="M21.6699 73.1963H14.3301C13.0485 73.1963 12 71.9346 12 70.3925V61.5608C12 60.0187 13.0485 58.757 14.3301 58.757H21.6699C22.9515 58.757 24 60.0187 24 61.5608V70.3925C24 71.9346 22.9515 73.1963 21.6699 73.1963Z" stroke="#2D3547" stroke-width="2" stroke-miterlimit="10"/>
<path d="M21.6699 91.486H14.3301C13.0485 91.486 12 90.3084 12 88.8692V80.6262C12 79.1869 13.0485 78.0093 14.3301 78.0093H21.6699C22.9515 78.0093 24 79.1869 24 80.6262V88.8692C24 90.3084 22.9515 91.486 21.6699 91.486Z" stroke="#2D3547" stroke-width="2" stroke-miterlimit="10"/>
<path d="M56.8641 52.9813H50.1359C48.9612 52.9813 48 51.8037 48 50.3645V42.1215C48 40.6822 48.9612 39.5047 50.1359 39.5047H56.8641C58.0388 39.5047 59 40.6822 59 42.1215V50.3645C59 51.8037 58.0388 52.9813 56.8641 52.9813Z" stroke="#2D3547" stroke-width="2" stroke-miterlimit="10"/>
<path d="M74.0583 52.9813H67.9417C66.8738 52.9813 66 51.8037 66 50.3645V42.1215C66 40.6822 66.8738 39.5047 67.9417 39.5047H74.0583C75.1262 39.5047 76 40.6822 76 42.1215V50.3645C76 51.8037 75.1262 52.9813 74.0583 52.9813Z" stroke="#2D3547" stroke-width="2" stroke-miterlimit="10"/>
<path d="M55.1533 104H6.87536C4.25931 104 2 101.701 2 98.7639V26.9907H85V51.8942" stroke="#2D3547" stroke-width="4" stroke-miterlimit="10" stroke-linecap="round" stroke-linejoin="round"/>
<path d="M2 26.9906V14.0192C2 11.1655 4.27848 8.70093 7.18987 8.70093H12" stroke="#2D3547" stroke-width="4" stroke-miterlimit="10" stroke-linejoin="round"/>
<path d="M85 26.9906V14.0192C85 11.1655 82.6522 8.70093 79.6522 8.70093H76" stroke="#2D3547" stroke-width="4" stroke-miterlimit="10" stroke-linecap="round" stroke-linejoin="round"/>
<path d="M24 8.70093H62" stroke="#2D3547" stroke-width="4" stroke-miterlimit="10"/>
<path d="M49.3395 67.7788L51.4649 60.7453C51.4649 59.978 50.6384 59.4665 49.9299 59.8501L37.5314 66.8836C36.8229 67.2673 36.8229 68.1624 37.5314 68.5461L49.9299 75.4517C50.6384 75.8354 51.583 75.1959 51.4649 74.4287L49.3395 67.7788ZM49.3395 67.7788H81.4576C83.4649 67.7788 85 69.3134 85 71.2316V78.0094" stroke="#EF0606" stroke-width="4" stroke-miterlimit="10" stroke-linecap="round" stroke-linejoin="round"/>
<path d="M76.3242 95.0342L74.2816 102.019C74.2816 102.781 75.1227 103.289 75.8436 102.908L88.4593 95.9232C89.1802 95.5422 89.1802 94.5262 88.4593 94.1452L75.7234 87.4146C75.0025 87.0336 74.0413 87.6685 74.1614 88.4305L76.3242 95.0342ZM76.3242 95.0342H44.6045C42.562 95.0342 41 93.5103 41 91.6054V84.7477" stroke="#EF0606" stroke-width="4" stroke-miterlimit="10" stroke-linecap="round" stroke-linejoin="round"/>
</svg>
