<svg width="97" height="110" viewBox="0 0 97 110" fill="none" xmlns="http://www.w3.org/2000/svg">
<path d="M70.3064 35.8675L91.2776 43.5651C92.431 44.0008 92.8505 46.1794 91.8019 47.1961L87.5028 51.9889C86.7688 52.8603 86.7688 54.3127 87.3979 55.1841L94.5281 64.915C95.1573 65.7864 95.1573 67.0936 94.5281 67.965L93.165 69.8531L91.8019 71.7412C91.1728 72.6126 90.2291 72.6126 89.5999 71.7412L82.4697 62.0103C81.8406 61.1388 80.792 61.2841 80.1629 62.1555L76.8075 68.2555C76.0735 69.5626 74.5007 69.1269 74.1861 67.5293L68.3142 38.6271C68.1044 36.8842 69.153 35.4318 70.3064 35.8675Z" stroke="#06ADEF" stroke-width="4" stroke-miterlimit="10" stroke-linecap="round" stroke-linejoin="round"/>
<path d="M40.5851 29.2193H61.3617" stroke="#253246" stroke-width="2" stroke-miterlimit="10" stroke-linecap="round" stroke-linejoin="round"/>
<path d="M49.4894 48.9298H60.3724" stroke="#06ADEF" stroke-width="4" stroke-miterlimit="10" stroke-linecap="round" stroke-linejoin="round"/>
<path d="M61.3617 37.6667H40.5851" stroke="#253246" stroke-width="2" stroke-miterlimit="10" stroke-linecap="round" stroke-linejoin="round"/>
<path d="M88.9414 79.2093C88.9414 82.6885 86.7372 85.5351 84.0433 85.5351H6.89811C4.20415 85.5351 2 82.6885 2 79.2093V13.2632H88.9414L89.0638 31.1335" stroke="#253246" stroke-width="4" stroke-miterlimit="10" stroke-linecap="round" stroke-linejoin="round"/>
<path d="M88.0745 14.2018V8.26143C88.0745 4.88989 86.0135 2 83.3464 2H6.72803C4.18217 2 2 4.72934 2 8.26143V14.2018" stroke="#253246" stroke-width="4" stroke-miterlimit="10" stroke-linecap="round" stroke-linejoin="round"/>
<path d="M30.0355 55.8446C29.1822 60.1205 31.3763 62.3377 38.2023 63.1295C44.5408 63.9213 42.7124 75.6405 42.7124 75.6405H25.8911H26.013H9.19175C9.19175 75.6405 7.36335 63.9213 13.7018 63.1295C20.5278 62.3377 22.7219 60.1205 21.8686 55.8446" stroke="#253246" stroke-width="2" stroke-miterlimit="10" stroke-linecap="round" stroke-linejoin="round"/>
<path d="M20.5278 60.9124C22.8438 63.6046 26.6225 65.6634 31.8639 61.2291" stroke="#253246" stroke-width="2" stroke-miterlimit="10" stroke-linecap="round" stroke-linejoin="round"/>
<path d="M17.9681 38.4243C17.9681 42.7002 17.9681 44.9173 17.9681 47.2928C17.9681 49.6683 18.9432 57.1116 25.8912 56.9532C32.8391 56.7948 33.8142 49.6683 33.8142 47.1345C33.8142 44.6006 33.8142 38.2659 33.8142 38.2659C30.5231 40.3247 23.3314 41.4333 17.6024 30.9811" stroke="#253246" stroke-width="2" stroke-miterlimit="10" stroke-linecap="round" stroke-linejoin="round"/>
<path d="M36.0083 37.4741C34.9113 31.9313 32.7172 26.2301 26.135 25.2799C22.3563 24.8048 19.309 27.6554 17.6025 31.1394C16.2616 33.8317 15.8959 36.8406 16.5054 38.8994C18.8214 38.1076 20.8936 35.7321 20.8936 35.7321" stroke="#253246" stroke-width="2" stroke-miterlimit="10" stroke-linecap="round" stroke-linejoin="round"/>
<path d="M63.9702 109H26.2174C24.869 109 23.7659 107.522 23.7659 105.715C23.7659 103.908 24.869 102.43 26.2174 102.43H63.8476C65.1959 102.43 66.2991 103.908 66.2991 105.715C66.4217 107.522 65.3185 109 63.9702 109Z" stroke="#253246" stroke-width="2" stroke-miterlimit="10" stroke-linecap="round" stroke-linejoin="round"/>
<path d="M57.4043 102.43H32.6703L35.1437 85.5351H54.9309L57.4043 102.43Z" stroke="#253246" stroke-width="2" stroke-miterlimit="10" stroke-linecap="round" stroke-linejoin="round"/>
</svg>
