<svg width="119" height="119" viewBox="0 0 119 119" fill="none" xmlns="http://www.w3.org/2000/svg">
<path d="M47.423 110.458H5.087C3.47 110.458 2 109.166 2 107.445V23.9462C2 23.5158 26.99 1.85202 26.99 1.85202H83.144C84.761 1.85202 86.231 3.14324 86.231 4.86486V44.8926" stroke="#2C3549" stroke-width="3" stroke-miterlimit="10" stroke-linecap="round" stroke-linejoin="round"/>
<path d="M4.49902 23.0854L23.903 22.7985C25.667 22.7985 26.99 21.3638 26.99 19.7856C26.99 15.3381 26.99 7.01692 26.99 2.5694" stroke="#2C3549" stroke-width="2" stroke-miterlimit="10" stroke-linecap="round" stroke-linejoin="round"/>
<path d="M43.748 38.293H71.531" stroke="#06ADEF" stroke-width="4" stroke-miterlimit="10" stroke-linecap="round" stroke-linejoin="round"/>
<path d="M43.4541 59.5263H59.3301" stroke="#2C3549" stroke-width="2" stroke-miterlimit="10" stroke-linecap="round" stroke-linejoin="round"/>
<path d="M43.4541 83.7726H59.3301" stroke="#2C3549" stroke-width="2" stroke-miterlimit="10" stroke-linecap="round" stroke-linejoin="round"/>
<path d="M95.1982 92.811C93.8752 97.9759 97.4032 100.558 108.281 101.563C118.571 102.423 115.631 116.627 115.631 116.627H88.5832H88.8772H61.8292C61.8292 116.627 58.8892 102.567 69.1792 101.563C80.0572 100.558 83.5852 97.9759 82.2622 92.811" stroke="#06ADEF" stroke-width="4" stroke-miterlimit="10" stroke-linecap="round" stroke-linejoin="round"/>
<path d="M79.9102 98.9802C83.7322 102.137 89.7592 104.719 98.1382 99.2672" stroke="#06ADEF" stroke-width="4" stroke-miterlimit="10" stroke-linecap="round" stroke-linejoin="round"/>
<path d="M75.9413 72.0081C75.9413 77.173 75.9413 79.8989 75.9413 82.7682C75.9413 85.6376 77.5583 94.6761 88.5833 94.3892C99.6083 94.2457 101.225 85.6376 101.225 82.6248C101.225 79.6119 101.225 72.0081 101.225 72.0081C96.0803 74.4471 84.4673 75.7383 75.3533 63.2565" stroke="#06ADEF" stroke-width="4" stroke-miterlimit="10" stroke-linecap="round" stroke-linejoin="round"/>
<path d="M104.753 70.8603C103.136 64.2608 99.6082 57.3743 88.8772 56.2265C82.8502 55.6527 77.9992 59.0959 75.3532 63.2565C73.2952 66.4128 72.5602 70.143 73.5892 72.5819C77.2642 71.5777 80.6452 68.7083 80.6452 68.7083" stroke="#06ADEF" stroke-width="4" stroke-miterlimit="10" stroke-linecap="round" stroke-linejoin="round"/>
<path d="M31.8412 27.6764C33.4582 27.6764 34.7812 28.9676 34.7812 30.5458V33.7021V42.3102C34.7812 43.8884 33.4582 45.1796 31.8412 45.1796H19.7872C18.1702 45.1796 16.8472 43.8884 16.8472 42.3102V33.2717" stroke="#06ADEF" stroke-width="4" stroke-miterlimit="10" stroke-linecap="round" stroke-linejoin="round"/>
<path d="M31.8412 68.7084H19.7872C18.1702 68.7084 16.8472 67.4171 16.8472 65.839V54.0746C16.8472 52.4964 18.1702 51.2052 19.7872 51.2052H31.8412C33.4582 51.2052 34.7812 52.4964 34.7812 54.0746V65.839C34.7812 67.4171 33.4582 68.7084 31.8412 68.7084Z" stroke="#2C3549" stroke-width="2" stroke-miterlimit="10"/>
<path d="M31.8412 92.3807H19.7872C18.1702 92.3807 16.8472 91.0895 16.8472 89.5113V77.7469C16.8472 76.1688 18.1702 74.8776 19.7872 74.8776H31.8412C33.4582 74.8776 34.7812 76.1688 34.7812 77.7469V89.5113C34.7812 91.0895 33.4582 92.3807 31.8412 92.3807Z" stroke="#2C3549" stroke-width="2" stroke-miterlimit="10"/>
<path d="M22.7271 36.2845C22.8741 36.4279 24.7851 38.293 24.7851 38.293L28.9011 34.4194" stroke="#06ADEF" stroke-width="2" stroke-miterlimit="10" stroke-linecap="round" stroke-linejoin="round"/>
<path d="M23.168 57.3743L28.46 62.6826" stroke="#2C3549" stroke-width="2" stroke-miterlimit="10" stroke-linecap="round" stroke-linejoin="round"/>
<path d="M23.168 62.6826L28.46 57.3743" stroke="#2C3549" stroke-width="2" stroke-miterlimit="10" stroke-linecap="round" stroke-linejoin="round"/>
<path d="M23.168 81.1901L28.46 86.355" stroke="#2C3549" stroke-width="2" stroke-miterlimit="10" stroke-linecap="round" stroke-linejoin="round"/>
<path d="M23.168 86.355L28.46 81.1901" stroke="#2C3549" stroke-width="2" stroke-miterlimit="10" stroke-linecap="round" stroke-linejoin="round"/>
</svg>
